<svg id="Capa_1" enable-background="new 0 0 512 512" height="512" viewBox="0 0 512 512" width="512" xmlns="http://www.w3.org/2000/svg"><g><path d="m467 91h-106.319c-2.214-53.029-15.562-81.257-16.179-82.533-2.505-5.178-7.75-8.467-13.502-8.467h-150c-5.752 0-10.997 3.289-13.502 8.467-.618 1.276-13.965 29.504-16.179 82.533h-106.319c-24.813 0-45 20.187-45 45v331c0 24.813 20.187 45 45 45h422c24.813 0 45-20.187 45-45v-331c0-24.813-20.187-45-45-45zm15 45v45h-121v-60h106c8.271 0 15 6.729 15 15zm-301 45v-60h150v60zm10.362-151h129.271c3.45 10.656 8.653 31.191 10.023 61h-149.312c1.37-29.83 6.579-50.37 10.018-61zm-146.362 91h106v60h-121v-45c0-8.271 6.729-15 15-15zm422 361h-422c-8.271 0-15-6.729-15-15v-256h31v45c0 8.284 6.716 15 15 15s15-6.716 15-15v-45h391v256c0 8.271-6.729 15-15 15z"/><path d="m286 421.5h-60c-8.284 0-15 6.716-15 15s6.716 15 15 15h60c8.284 0 15-6.716 15-15s-6.716-15-15-15z"/></g></svg>