<svg id="Capa_1" enable-background="new 0 0 512 512" height="512" viewBox="0 0 512 512" width="512" xmlns="http://www.w3.org/2000/svg"><g><path d="m345.5 166c0-24.813-20.187-45-45-45s-45 20.187-45 45 20.187 45 45 45 45-20.187 45-45zm-45 15c-8.271 0-15-6.729-15-15s6.729-15 15-15 15 6.729 15 15-6.729 15-15 15z"/><path d="m255.5 301h90c8.284 0 15-6.716 15-15v-15c0-33.084-26.916-60-60-60s-60 26.916-60 60v15c0 8.284 6.716 15 15 15zm45-60c16.542 0 30 13.458 30 30h-60c0-16.542 13.458-30 30-30z"/><path d="m106 241h90c8.284 0 15-6.716 15-15s-6.716-15-15-15h-90c-8.284 0-15 6.716-15 15s6.716 15 15 15z"/><path d="m106 301h90c8.284 0 15-6.716 15-15s-6.716-15-15-15h-90c-8.284 0-15 6.716-15 15s6.716 15 15 15z"/><path d="m345.5 331h-180c-8.284 0-15 6.716-15 15s6.716 15 15 15h180c8.284 0 15-6.716 15-15s-6.716-15-15-15z"/><path d="m256 391h-90.5c-8.284 0-15 6.716-15 15s6.716 15 15 15h90.5c8.284 0 15-6.716 15-15s-6.716-15-15-15z"/><circle cx="105.5" cy="346" r="15"/><circle cx="105.5" cy="406" r="15"/><path d="m466.5 61c-7.543 0-278.73 0-285.5 0v-16c0-24.813-20.187-45-45-45s-45 20.187-45 45v16h-45.5c-8.284 0-15 6.716-15 15v421c0 8.284 6.716 15 15 15h421c8.284 0 15-6.716 15-15v-421c0-8.284-6.716-15-15-15zm-345.5-16c0-8.271 6.729-15 15-15s15 6.729 15 15v16h-30zm-60.5 46h90.5v45c0 8.271-6.729 15-15 15s-15-6.729-15-15c0-8.284-6.716-15-15-15s-15 6.716-15 15c0 24.813 20.187 45 45 45s45-20.187 45-45v-45h209.5v300h-75c-8.284 0-15 6.716-15 15v76h-240zm309.787 330-39.787 39.787v-39.787zm81.213 61h-99.787l64.394-64.394c2.813-2.813 4.394-6.628 4.394-10.606v-316h31v391z"/></g></svg>