<svg id="Capa_1" enable-background="new 0 0 512 512" height="512" viewBox="0 0 512 512" width="512" xmlns="http://www.w3.org/2000/svg"><g><path d="m497 240.993h-106v-42.333l89.567-49.783c10.262-5.704 10.276-20.509 0-26.221l-217.279-120.767c-4.532-2.518-10.043-2.518-14.575 0l-217.28 120.767c-10.262 5.704-10.276 20.509 0 26.221l89.567 49.783v42.333h-106c-8.284 0-15 6.716-15 15v119.997c0 8.284 6.716 15 15 15h182.666c2.317 9.655 6.971 18.405 13.334 25.622v80.375c0 11.405 12.183 18.492 22.05 13.24l22.988-12.24 22.894 12.23c9.95 5.315 22.068-1.877 22.068-13.23v-80.375c6.363-7.217 11.016-15.968 13.334-25.622h182.666c8.284 0 15-6.716 15-15v-119.997c0-8.284-6.716-15-15-15zm-427.404-105.226 186.404-103.607 186.404 103.606-51.404 28.572c-.728-9.735 2.217-17.338-4.394-23.949-5.831-5.831-30.225-19.393-130.557-19.393-100.421 0-124.825 13.562-130.656 19.393-6.612 6.612-3.67 14.276-4.394 23.949zm81.404 24.685c39.363-12.701 170.552-12.736 210-.002v80.543h-210zm75 216.537c0-16.542 13.458-29.999 30-29.999s30 13.458 30 29.999c0 16.542-13.458 29.999-30 29.999s-30-13.457-30-29.999zm30-59.998c-17.908 0-33.997 7.896-45 20.377v-66.375h90v66.375c-11.003-12.482-27.092-20.377-45-20.377zm-226-45.999h151v89.997h-151zm219 196.754-8 4.26v-36.917c9.8 2.532 20.195 2.533 30 0v36.878c-4.337-1.621-12.209-9.435-22-4.221zm233-106.756h-151v-89.997h151z"/></g></svg>