<svg id="Capa_1" enable-background="new 0 0 512 512" height="512" viewBox="0 0 512 512" width="512" xmlns="http://www.w3.org/2000/svg"><g><path d="m95.511 108.355c26.205 0 47.524-21.379 47.524-47.659s-21.319-47.659-47.524-47.659-47.524 21.38-47.524 47.659 21.319 47.659 47.524 47.659zm0-65.317c9.663 0 17.524 7.922 17.524 17.659s-7.861 17.659-17.524 17.659-17.524-7.922-17.524-17.659c-.001-9.738 7.861-17.659 17.524-17.659z"/><path d="m416.489 108.355c26.205 0 47.524-21.379 47.524-47.659s-21.319-47.659-47.524-47.659-47.524 21.38-47.524 47.659 21.319 47.659 47.524 47.659zm0-65.317c9.663 0 17.524 7.922 17.524 17.659s-7.861 17.659-17.524 17.659-17.524-7.922-17.524-17.659c0-9.738 7.861-17.659 17.524-17.659z"/><path d="m449.014 108.479h-65.049c-19.062 0-36.161 8.55-47.721 22.015-11.56-13.464-28.658-22.015-47.72-22.015h-65.049c-19.062 0-36.16 8.55-47.72 22.015-11.56-13.464-28.658-22.015-47.721-22.015h-65.048c-34.73 0-62.986 28.345-62.986 63.186v128.495c0 8.284 6.716 15 15 15h12.365l8.175 169.526c.386 7.994 6.979 14.277 14.982 14.277h87.845c7.97 0 14.548-6.232 14.979-14.191l9.163-169.612h25.346l8.174 169.525c.386 7.995 6.979 14.278 14.982 14.278h87.846c7.97 0 14.548-6.232 14.979-14.191l9.162-169.612h25.346l8.175 169.526c.386 7.994 6.979 14.277 14.982 14.277h87.845c7.97 0 14.548-6.232 14.979-14.191l9.163-169.612h13.512c8.284 0 15-6.716 15-15v-128.495c0-34.841-28.256-63.186-62.986-63.186zm-65.049 30h17.524v75.021c0 8.284 6.716 15 15 15s15-6.716 15-15v-75.021h17.524c18.188 0 32.986 14.887 32.986 33.186v113.495h-130.488c-.08-119.337.179-113.178-.194-118.213 2.284-16.072 16.051-28.468 32.648-28.468zm-160.489 0h17.524v75.021c0 8.284 6.716 15 15 15s15-6.716 15-15v-75.021h17.524c16.596 0 30.362 12.396 32.647 28.467-.373 5.038-.114-.964-.194 118.213h-129.955c-.08-119.337.179-113.178-.194-118.213 2.285-16.071 16.052-28.467 32.648-28.467zm-193.476 33.186c0-18.298 14.798-33.186 32.986-33.186h17.524v75.021c0 8.284 6.716 15 15 15s15-6.716 15-15v-75.021h17.524c16.597 0 30.363 12.396 32.648 28.467-.373 5.038-.114-.964-.194 118.213h-130.488zm94.155 297.297h-59.339l-7.416-153.803h75.065zm160.49 0h-59.34l-7.416-153.803h75.064zm160.488 0h-59.339l-7.417-153.803h75.065z"/><path d="m257.066 108.355c26.205 0 47.524-21.379 47.524-47.659s-21.319-47.659-47.524-47.659-47.524 21.38-47.524 47.659 21.319 47.659 47.524 47.659zm0-65.317c9.663 0 17.524 7.922 17.524 17.659s-7.861 17.659-17.524 17.659-17.524-7.922-17.524-17.659c0-9.738 7.861-17.659 17.524-17.659z"/></g></svg>