<svg id="Capa_1" enable-background="new 0 0 512 512" height="512" viewBox="0 0 512 512" width="512" xmlns="http://www.w3.org/2000/svg"><g><path d="m271 249.787v-83.787c0-8.284-6.716-15-15-15s-15 6.716-15 15v90c0 3.978 1.58 7.793 4.394 10.606l49.496 49.497c5.857 5.858 15.355 5.858 21.213 0 5.858-5.857 5.858-15.355 0-21.213z"/><path d="m256 60c-108.341 0-196 88.149-196 196 0 107.441 87.2 196 196 196 107.945 0 196-87.829 196-196 0-107.946-87.83-196-196-196zm150 211h15.315c-3.107 34.525-16.824 66.036-37.865 91.236l-10.777-10.777c-5.856-5.857-15.354-5.858-21.213 0-5.858 5.858-5.858 15.355 0 21.213l10.777 10.777c-25.2 21.042-56.711 34.758-91.237 37.866v-15.315c0-8.284-6.716-15-15-15s-15 6.716-15 15v15.315c-34.526-3.107-66.036-16.824-91.237-37.866l10.777-10.777c5.858-5.858 5.858-15.355 0-21.213-5.857-5.857-15.355-5.858-21.213 0l-10.777 10.777c-21.041-25.2-34.758-56.711-37.865-91.236h15.315c8.284 0 15-6.716 15-15s-6.716-15-15-15h-15.315c3.107-34.525 16.824-66.036 37.865-91.236l10.777 10.777c5.857 5.858 15.354 5.858 21.213 0 5.858-5.858 5.858-15.355 0-21.213l-10.777-10.777c25.2-21.042 56.711-34.758 91.237-37.866v15.315c0 8.284 6.716 15 15 15s15-6.716 15-15v-15.315c34.526 3.107 66.036 16.824 91.237 37.866l-10.777 10.777c-5.858 5.858-5.858 15.355 0 21.213 5.857 5.857 15.355 5.858 21.213 0l10.777-10.777c21.042 25.201 34.758 56.711 37.865 91.236h-15.315c-8.284 0-15 6.716-15 15s6.716 15 15 15z"/><path d="m447 0h-382c-35.841 0-65 29.159-65 65v382c0 35.841 29.159 65 65 65h382c35.841 0 65-29.159 65-65v-382c0-35.841-29.159-65-65-65zm35 447c0 19.299-15.701 35-35 35h-382c-19.299 0-35-15.701-35-35v-382c0-19.299 15.701-35 35-35h382c19.299 0 35 15.701 35 35z"/></g></svg>