<svg id="Capa_1" enable-background="new 0 0 512 512" height="512" viewBox="0 0 512 512" width="512" xmlns="http://www.w3.org/2000/svg"><g><path d="m496.9 180-44.9.3v-165.3c0-8.284-6.716-15-15-15h-149c-5.232 0-10.087 2.727-12.81 7.195l-31.566 51.805h-228.624c-8.284 0-15 6.716-15 15v300c0 8.284 6.716 15 15 15h77c.003 66.002-.007 62.991.008 63.498.536 32.9 27.466 59.502 60.492 59.502h344.5c8.284 0 15-6.716 15-15v-302c0-8.49-7.019-15.118-15.1-15zm-466.9 179v-270h222.05c5.232 0 10.087-2.727 12.81-7.195l31.566-51.805h125.574v150.5l-210 1.4v-45.9c0-8.284-6.716-15-15-15h-44.5c-33.359 0-60.5 27.14-60.5 60.5v177.5zm152-208v45.99.019 193.991c-21.876 1.291-39.038-4.023-60 8.265v-217.765c0-16.818 13.683-30.5 30.5-30.5zm300 331h-329.5c-16.817 0-30.5-13.682-30.5-30.5s13.683-30.5 30.5-30.5h44.5c8.284 0 15-6.716 15-15v-194.1l270-1.8z"/><path d="m256 421h181c14.823 0 20.632-19.319 8.289-27.502l-181-120c-9.914-6.572-23.289.495-23.289 12.502v120c0 8.284 6.716 15 15 15zm15-107.058 116.229 77.058h-116.229z"/></g></svg>