<svg id="Capa_1" enable-background="new 0 0 511.999 511.999" height="512" viewBox="0 0 511.999 511.999" width="512" xmlns="http://www.w3.org/2000/svg"><g><path d="m398.207 403.058-59.344-296.719 28.865-86.596c3.233-9.699-3.995-19.743-14.23-19.743h-120c-10.225 0-17.466 10.034-14.23 19.744l27.071 81.214-127.718 111.753c-6.378 5.58-6.87 15.347-1.073 21.54l44 47c5.633 6.017 15.051 6.355 21.104.79l37.179-34.188-31.041 155.205c-.978 4.889.538 9.945 4.044 13.49l90 91c5.859 5.925 15.452 5.944 21.33 0l90-91c3.505-3.545 5.021-8.601 4.043-13.49zm-87.006-282.058 12.32 61.6-57.044-15.012 9.318-46.588zm-50.618 76.059 69.487 18.286 11.395 56.977-91.139-23.984zm-16.15 80.751 103.582 27.258 11.395 56.977-125.233-32.956zm88.254-247.81-20.333 61h-37.71l-20.334-61zm-159.399 219.896-23.238-24.822 90.104-78.841-10.336 51.68zm120.21 225.772-73.728-74.546 8.513-42.563 137.676 36.231 1.266 6.332z"/></g></svg>