<svg id="Capa_1" enable-background="new 0 0 512 512" height="512" viewBox="0 0 512 512" width="512" xmlns="http://www.w3.org/2000/svg"><g><path d="m377.5 243h-3.932l2.411-45.201c.459-8.587-6.39-15.799-14.979-15.799h-300c-8.562 0-15.41 7.171-14.981 15.749l13.1 261.997c1.464 29.301 25.593 52.254 54.931 52.254h193.027c29.24 0 53.364-22.872 54.921-52.071l2.13-39.929h13.372c48.799 0 88.5-39.701 88.5-88.5s-39.701-88.5-88.5-88.5zm-70.423 239h-193.027c-13.335 0-24.303-10.433-24.968-23.751l-12.313-246.249h268.41l-13.138 246.332c-.708 13.272-11.673 23.668-24.964 23.668zm70.423-92h-11.772l6.24-117h5.532c32.257 0 58.5 26.243 58.5 58.5s-26.243 58.5-58.5 58.5z"/><path d="m149.051 151.13c8.284 0 15-6.716 15-15 0-28.394 10.482-37.033 24.99-48.99 15.999-13.186 35.91-29.596 35.91-72.14 0-8.284-6.716-15-15-15s-15 6.716-15 15c0 28.394-10.482 37.033-24.99 48.99-15.999 13.186-35.91 29.596-35.91 72.14 0 8.284 6.715 15 15 15z"/><path d="m235.945 152.436c8.284 0 15-6.716 15-15 0-11.132 3.188-13.759 10.171-19.515 8.399-6.922 21.091-17.382 21.091-42.665 0-8.284-6.716-15-15-15s-15 6.716-15 15c0 11.132-3.188 13.759-10.171 19.515-8.399 6.922-21.091 17.382-21.091 42.665 0 8.284 6.716 15 15 15z"/><path d="m267.868 276.243c-33.666-27.444-84.133-11.738-113.158 23.867-29.101 35.696-34.166 88.264-.578 115.646 34.107 27.804 84.696 11.048 113.158-23.867 29.101-35.695 34.167-88.263.578-115.646zm-26.943 18.614c-11.355 21.479-58.548 50.645-79.235 77.384-8.146-43.36 43.099-91.731 79.235-77.384zm-59.856 102.297c11.398-21.584 58.459-50.533 79.241-77.395 8.184 43.557-43.35 91.646-79.241 77.395z"/></g></svg>