<svg id="Capa_1" enable-background="new 0 0 512 512" height="512" viewBox="0 0 512 512" width="512" xmlns="http://www.w3.org/2000/svg"><g><path d="m511.502 192.35c-.864-3.457-2.912-6.378-5.531-8.344l-55.004-41.313v-66.693c0-8.284-6.715-15-14.999-15h-93.767l-77.212-57.994c-5.337-4.008-12.679-4.007-18.014 0l-77.213 57.994h-93.767c-8.284 0-14.999 6.716-14.999 15v66.693c-11.697 8.79-54.032 40.564-55.259 41.529-3.813 3.006-5.737 7.435-5.737 11.778 0 14.118-.005 299.882.009 301.172.095 8.293 6.878 14.828 14.991 14.828 318.24-.018 482.15.038 483.327-.069 7.61-.688 13.636-7.11 13.636-14.931-.164-319.939.412-301.171-.461-304.65zm-29.537 38.85v228.735l-114.739-118.547zm-8.114-33.801-22.884 21.976v-39.165zm-217.869-163.64 36.268 27.241h-72.536zm164.987 57.241v157.184l-81.03 77.816h-167.915l-81.03-77.816v-157.184zm-390.971 140.2 114.739 110.188-114.739 118.547zm30.998-11.824-22.884-21.976 22.884-17.188zm-10.604 262.624 121.952-126h167.275l121.952 126z"/><path d="m135.991 151h239.982c8.284 0 14.999-6.716 14.999-15s-6.715-15-14.999-15h-239.982c-8.284 0-14.999 6.716-14.999 15s6.715 15 14.999 15z"/><path d="m135.991 211h239.982c8.284 0 14.999-6.716 14.999-15s-6.715-15-14.999-15h-239.982c-8.284 0-14.999 6.716-14.999 15s6.715 15 14.999 15z"/><path d="m345.975 241h-179.987c-8.284 0-14.999 6.716-14.999 15s6.715 15 14.999 15h179.987c8.284 0 14.999-6.716 14.999-15s-6.715-15-14.999-15z"/></g></svg>