<svg id="Capa_1" enable-background="new 0 0 512 512" height="512" viewBox="0 0 512 512" width="512" xmlns="http://www.w3.org/2000/svg"><g><path d="m497 0h-482c-8.284 0-15 6.716-15 15s6.716 15 15 15h16v316c0 8.284 6.716 15 15 15h195v69.787l-51.213 51.213h-23.787c-8.284 0-15 6.716-15 15s6.716 15 15 15h30c3.979 0 7.794-1.581 10.606-4.394l34.394-34.393v22.787c0 8.284 6.716 15 15 15s15-6.716 15-15v-23.787l34.394 34.393c2.812 2.813 6.627 4.394 10.606 4.394h30c8.284 0 15-6.716 15-15s-6.716-15-15-15h-23.787l-51.213-51.213v-68.787h195c8.284 0 15-6.716 15-15v-316h16c8.284 0 15-6.716 15-15s-6.716-15-15-15zm-46 331h-390v-301h390z"/><path d="m106 301h300c8.284 0 15-6.716 15-15v-195.05c0-13.335-16.198-20.055-25.629-10.584l-109.534 109.99-49.372-48.53c-5.567-5.472-14.401-5.759-20.313-.66l-119.95 103.476c-3.303 2.85-5.202 6.996-5.202 11.358v30c0 8.284 6.716 15 15 15zm15-38.13 104.288-89.964 50.147 49.292c5.881 5.781 15.324 5.729 21.144-.113l94.421-94.815v143.73h-270z"/></g></svg>