<svg id="Capa_1" enable-background="new 0 0 512 512" height="512" viewBox="0 0 512 512" width="512" xmlns="http://www.w3.org/2000/svg"><g><path d="m467 182h-16v-92c0-3.978-1.581-7.793-4.394-10.606l-75-75c-2.813-2.813-6.628-4.394-10.606-4.394-5.49 0-277.156 0-285 0-8.284 0-15 6.716-15 15v226h-16c-8.284 0-15 6.716-15 15v241c0 8.284 6.716 15 15 15h422c8.284 0 15-6.716 15-15v-300c0-8.284-6.716-15-15-15zm-151 .135v-92.135c0-3.978-1.581-7.793-4.394-10.606l-49.393-49.394h83.787v60c0 8.284 6.716 15 15 15h60v77c-109.271.049-103.087-.122-105 .135zm-75-130.922 22.787 22.787h-22.787zm135 0 23.787 23.787h-23.787zm-285-21.213h120v59c0 8.284 6.716 15 15 15h60v116.69l-12.375 20.31h-182.625zm361 452h-392v-211h222.05c5.232 0 10.087-2.727 12.81-7.195l31.565-51.805h125.575z"/><path d="m226 121h-75c-8.284 0-15 6.716-15 15s6.716 15 15 15h75c8.284 0 15-6.716 15-15s-6.716-15-15-15z"/><path d="m226 181h-75c-8.284 0-15 6.716-15 15s6.716 15 15 15h75c8.284 0 15-6.716 15-15s-6.716-15-15-15z"/></g></svg>