<svg id="Capa_1" enable-background="new 0 0 512 512" height="512" viewBox="0 0 512 512" width="512" xmlns="http://www.w3.org/2000/svg"><g><path d="m451 32h-106.922c-5.592-18.494-22.784-32-43.078-32h-90c-20.294 0-37.486 13.506-43.078 32h-106.922c-8.284 0-15 6.716-15 15v450c0 8.284 6.716 15 15 15h390c8.284 0 15-6.716 15-15v-450c0-8.284-6.716-15-15-15zm-255 13c0-8.271 6.729-15 15-15h90c8.271 0 15 6.729 15 15v15h-120zm240 437h-360v-420h90v13c0 8.284 6.716 15 15 15h150c8.284 0 15-6.716 15-15v-13h90z"/><path d="m354.32 334.519-164.776-109.851 52.456-52.455v8.787c0 8.284 6.716 15 15 15s15-6.716 15-15v-45c0-8.284-6.716-15-15-15h-46c-8.284 0-15 6.716-15 15s6.716 15 15 15h9.787l-65.394 65.394c-6.679 6.679-5.598 17.83 2.286 23.087l164.776 109.851-77.062 77.062c-5.858 5.858-5.858 15.355 0 21.213 5.857 5.858 15.355 5.859 21.213 0l90-90c6.679-6.679 5.599-17.831-2.286-23.088z"/><path d="m166 332c-24.813 0-45 20.187-45 45s20.187 45 45 45 45-20.187 45-45-20.187-45-45-45zm0 60c-8.271 0-15-6.729-15-15s6.729-15 15-15 15 6.729 15 15-6.729 15-15 15z"/><path d="m345.25 176.537-10.144-10.144c-5.857-5.858-15.355-5.858-21.213 0s-5.858 15.355 0 21.213l10.144 10.144-10.144 10.144c-5.858 5.858-5.858 15.355 0 21.213 5.857 5.858 15.355 5.859 21.213 0l10.144-10.144 10.144 10.144c5.857 5.858 15.355 5.859 21.213 0 5.858-5.858 5.858-15.355 0-21.213l-10.144-10.144 10.144-10.144c5.858-5.858 5.858-15.355 0-21.213-5.857-5.858-15.355-5.858-21.213 0z"/></g></svg>