<svg id="Capa_1" enable-background="new 0 0 512.01 512.01" height="512" viewBox="0 0 512.01 512.01" width="512" xmlns="http://www.w3.org/2000/svg"><g><path d="m198.68 117.25-6.68 46.917c-1.695 11.903 10.65 20.877 21.45 15.585l42.555-20.852 42.555 20.852c10.795 5.291 23.145-3.678 21.45-15.585l-6.681-46.917 32.981-34.03c8.367-8.633 3.654-23.15-8.193-25.217l-46.684-8.144-22.171-41.884c-5.624-10.625-20.887-10.629-26.514 0l-22.172 41.884-46.684 8.144c-11.843 2.066-16.564 16.581-8.193 25.217zm34.292-39.1c4.568-.797 8.51-3.661 10.679-7.759l12.354-23.336 12.354 23.336c2.169 4.098 6.111 6.962 10.679 7.759l26.011 4.538-18.376 18.96c-3.227 3.329-4.733 7.964-4.079 12.554l3.722 26.141-23.71-11.618c-4.157-2.037-9.028-2.044-13.2 0l-23.71 11.618 3.722-26.141c.654-4.59-.852-9.225-4.079-12.554l-18.376-18.96z"/><path d="m499.583 165.365-33.955-5.923-16.126-30.464c-5.624-10.624-20.887-10.63-26.514 0l-16.125 30.463-33.955 5.923c-11.843 2.066-16.564 16.581-8.193 25.217l23.988 24.751-4.859 34.124c-1.702 11.951 10.694 20.858 21.45 15.585l30.952-15.166 30.952 15.166c10.797 5.29 23.145-3.678 21.45-15.585l-4.859-34.124 23.988-24.751c8.366-8.632 3.653-23.149-8.194-25.216zm-42.452 34.366c-3.227 3.329-4.733 7.964-4.079 12.554l1.9 13.347c-10.598-4.809-13.133-7.463-18.707-7.463-5.57 0-8.094 2.647-18.707 7.463l1.9-13.347c.654-4.59-.852-9.225-4.079-12.554l-9.383-9.681 13.281-2.317c4.568-.797 8.51-3.661 10.68-7.759l6.307-11.915 6.308 11.916c2.169 4.098 6.111 6.962 10.679 7.759l13.281 2.317z"/><path d="m128.167 249.457-4.859-34.124 23.988-24.751c8.367-8.633 3.654-23.15-8.193-25.217l-33.955-5.923-16.125-30.463c-5.624-10.625-20.887-10.631-26.514 0l-16.126 30.464-33.955 5.923c-11.843 2.066-16.564 16.581-8.193 25.217l23.988 24.751-4.859 34.124c-1.694 11.901 10.652 20.878 21.45 15.585l30.952-15.166 30.952 15.166c10.723 5.255 23.153-3.617 21.449-15.586zm-31.516-49.726c-3.227 3.329-4.733 7.964-4.079 12.554l1.9 13.347-12.106-5.932c-4.163-2.04-9.037-2.04-13.2 0l-12.107 5.932 1.9-13.347c.654-4.59-.852-9.225-4.079-12.554l-9.383-9.681 13.281-2.317c4.568-.797 8.51-3.661 10.679-7.759l6.308-11.916 6.307 11.915c2.169 4.098 6.112 6.963 10.68 7.759l13.281 2.317z"/><path d="m318.15 396.042c17.154-16.398 27.855-39.493 27.855-65.042 0-6.808 0-60.664 0-67.463 0-28.97-23.569-52.54-52.539-52.54h-74.923c-28.97 0-52.539 23.569-52.539 52.54v67.463c0 25.548 10.701 48.643 27.855 65.041-42.221 13.61-72.855 53.273-72.855 99.963v1c0 8.284 6.716 15 15 15s15-6.716 15-15v-1c0-27.348 14.719-51.314 36.645-64.419 7.633 24.412 28.021 43.231 53.322 48.642v16.777c0 8.284 6.716 15 15 15s15-6.716 15-15v-16.786c25.302-5.427 45.685-24.261 53.303-48.683 21.972 13.094 36.73 37.085 36.73 64.468v1c0 8.284 6.716 15 15 15s15-6.716 15-15v-1c.001-46.688-30.633-86.35-72.854-99.961zm-122.145-76.322c11.034 7.42 23.981 11.401 37.545 11.4 1.078 0 1.39-.016 7.742-.122 8.203-.14 14.771-6.844 14.744-15.048l-.049-14.95h60.018v30.001c0 33.085-26.916 60.001-60 60.001s-60-26.917-60-60.001zm22.539-78.721h74.923c12.428 0 22.539 10.111 22.539 22.539v7.462h-75.068c-3.987 0-7.81 1.587-10.625 4.411-6.666 6.688-3.605 14.375-4.328 24.948-16.759-3.421-29.979-18.318-29.979-36.821-.001-12.428 10.11-22.539 22.538-22.539zm37.423 210.818c-.004 0-.008 0-.013 0-18.948 0-34.963-12.755-39.939-30.129 9.032-1.208 9.597-.461 69.989-.685 3.355 0 6.653.244 9.892.673-4.968 17.374-20.98 30.135-39.929 30.141z"/></g></svg>