<svg id="Capa_1" enable-background="new 0 0 512 512" height="512" viewBox="0 0 512 512" width="512" xmlns="http://www.w3.org/2000/svg"><g><path d="m373.688 309.881-72.738-6.564v-11.451c31.913-15.114 54.117-45.414 59.06-80.257 22.331-2.309 40.254-20.917 40.873-43.456.653-23.819-17.155-43.386-39.833-45.92 0-7.471 0-60.159 0-67.233 0-30.327-24.673-55-55-55h-170c-8.284 0-15 6.716-15 15v45.952c0 20.075 12.185 37.554 29.9 44.979v16.374c-21.87 2.748-39.274 21.138-39.883 43.343-.669 24.387 17.917 44.019 40.928 46.029 4.949 34.775 27.13 65.049 59.005 80.166v11.519l-72.96 6.82c-43.652 4.08-77.09 40.713-77.09 84.631v102.187c0 8.284 6.716 15 15 15h360.1c8.284 0 15-6.716 15-15v-102.463c0-43.947-33.517-80.7-77.362-84.656zm-222.638-279.881h155c13.785 0 25 11.215 25 25v50.95h-18.65c-6.309 0-11.413-5.111-11.4-11.422.016-8.29-6.706-15.028-15-15.028h-119.062c-9.108-1.411-15.888-9.258-15.888-18.548zm29.9 166.85c0-8.284-6.716-15-15-15h-9.95c-8.395 0-15.176-6.9-14.944-15.381.22-8.006 7.203-14.52 15.566-14.52.145 0 9.469 0 9.328 0 8.279 0 15-6.716 15-15v-27.449h92.819c5.896 15.25 20.796 26.45 38.631 26.45h18.649v1c0 8.284 6.716 15 15 15h9.9c8.357 0 15.177 6.867 14.944 15.38-.22 8.006-7.204 14.52-15.567 14.52h-9.277c-8.284 0-15 6.766-15 15.05 0 31.781-20.129 60.232-50.088 70.795-5.999 2.116-10.012 7.785-10.012 14.146v35.183c0 8.257-6.718 14.975-14.976 14.975-8.257 0-14.975-6.718-14.975-14.975v-35.2c0-6.358-4.009-12.025-10.004-14.144-29.931-10.573-50.044-39.018-50.044-70.83zm180 285.15h-53.605c-2.46-26.279-24.633-46.918-51.545-46.918-26.911 0-49.084 20.639-51.544 46.918h-53.306v-76.05h210zm-83.924 0h-42.452c2.216-9.676 10.888-16.918 21.225-16.918 10.339 0 19.012 7.242 21.227 16.918zm144.024 0h-30.1v-91.05c0-8.284-6.716-15-15-15h-240c-8.284 0-15 6.716-15 15v91.05h-30v-87.188c0-28.562 21.444-52.104 49.881-54.761l73.194-6.841c14.832 38.31 69.112 38.313 83.917-.042l73.051 6.592c28.537 2.575 50.057 26.124 50.057 54.777z"/></g></svg>