<svg id="Capa_1" enable-background="new 0 0 512 512" height="512" viewBox="0 0 512 512" width="512" xmlns="http://www.w3.org/2000/svg"><g><path d="m286 241c0-33.084-26.916-60-60-60s-60 26.916-60 60 26.916 60 60 60 60-26.916 60-60zm-60 30c-16.542 0-30-13.458-30-30s13.458-30 30-30 30 13.458 30 30-13.458 30-30 30z"/><path d="m507.607 245.395-86.607-86.626v-143.769c0-8.284-6.716-15-15-15-2.98 0-292.099 0-300 0-8.284 0-15 6.716-15 15v143.805c-14.642 14.641-85.785 85.753-86.781 86.781-2.76 2.861-4.219 6.64-4.219 10.414v241c0 8.284 6.716 15 15 15h482c8.284 0 15-6.716 15-15v-241c0-3.983-1.629-7.842-4.393-10.605zm-29.32 13.103c-15.581 26.004-34.968 48.516-57.287 67.011v-124.31zm-357.287-137.498h16c41.355 0 75-33.645 75-75v-16h28v16c0 41.355 33.645 75 75 75h16v252.4c-23.812 7.024-48.983 10.704-74.979 10.706-.012 0-.012 0-.023 0-49.154 0-95.373-13.138-134.998-37.223zm240 0h30v225.884c-9.628 5.852-19.645 11.058-30 15.585zm30-30h-30v-61h30zm-60 0h-16c-24.813 0-45-20.187-45-45v-16h61zm-149-61v16c0 24.813-20.187 45-45 45h-16v-61zm-91 295.506c-22.318-18.493-41.705-41.004-57.285-67.006l57.285-57.273zm391 156.494h-452v-176.259c55.545 69.957 138.35 108.367 225.999 108.364h.025c85.306-.006 169.021-36.631 225.976-108.363z"/></g></svg>