<svg id="Capa_1" enable-background="new 0 0 512 512" height="512" viewBox="0 0 512 512" width="512" xmlns="http://www.w3.org/2000/svg"><g><path d="m502.574 423.074c-25.576-10.237-52.77-17.121-80.524-20.696v-70.413c0-15.768 5.63-30.515 15.858-41.53 44.664-48.157 18.096-127.295-46.908-138.256-.552-47.954 2.084-51.308-4.394-57.786-.128-.128-90.163-90.162-90.012-90.011-2.807-2.803-6.675-4.382-10.594-4.382h-271c-8.284 0-15 6.716-15 15v482c0 8.284 6.716 15 15 15h482c8.284 0 15-6.716 15-15v-60c0-6.132-3.732-11.647-9.426-13.926zm-140.524-23.267v-27.807h30v27.807c-9.993-.423-20.008-.423-30 0zm53.868-129.779c-28.927 31.153-23.159 67.339-23.868 71.972h-30c-.785-5.043 5.336-39.915-24.184-72.32-31.114-34.132-6.173-89.312 39.832-88.676 45.524.551 69.43 55.374 38.22 89.024zm-114.918-218.815 38.787 38.787h-38.787zm-271-21.213h241v75c0 8.284 6.716 15 15 15h75v32.561c-63.169 12.388-88.827 89.583-45.309 137.325 10.549 11.579 16.358 26.157 16.358 41.049v71.443c-27.754 3.575-54.949 10.459-80.524 20.696-5.693 2.279-9.426 7.793-9.426 13.926v45h-212.099zm452 452h-209.9v-34.653c66.441-23.894 143.459-23.894 209.9 0z"/><path d="m198.553 334.61 8.003-8.003c5.858-5.858 5.858-15.355 0-21.213-5.857-5.858-15.355-5.857-21.213 0l-8.025 8.025c-49.464-32.73-116.268 2.79-116.268 62.581 0 15.238 4.58 29.422 12.418 41.269l-8.333 8.332c-5.858 5.857-5.858 15.355 0 21.213 5.857 5.858 15.355 5.858 21.213 0l8.311-8.311c49.15 32.656 116.391-2.352 116.391-62.503 0-15.29-4.609-29.519-12.497-41.39zm-43.182.757-59.954 59.954c-18.157-38.029 21.904-78.12 59.954-59.954zm-38.779 81.204 60.03-60.029c18.338 38.085-21.884 78.398-60.03 60.029z"/><path d="m76.05 151.502h150c8.284 0 15-6.716 15-15s-6.716-15-15-15h-150c-8.284 0-15 6.716-15 15s6.716 15 15 15z"/><path d="m76.05 214.5h179.95c8.284 0 15-6.716 15-15s-6.716-15-15-15h-179.95c-8.284 0-15 6.716-15 15s6.716 15 15 15z"/><path d="m76 271h179.95c8.284 0 15-6.716 15-15s-6.716-15-15-15h-179.95c-8.284 0-15 6.716-15 15s6.716 15 15 15z"/></g></svg>