<svg id="Capa_1" enable-background="new 0 0 512 512" height="512" viewBox="0 0 512 512" width="512" xmlns="http://www.w3.org/2000/svg"><g><path d="m450.15 143.028v-52.028c0-8.284-6.718-15-15.005-15h-135.02v-45c0-8.284-6.718-15-15.005-15h-120.09c-8.287 0-15.005 6.716-15.005 15v45h-135.02c-8.287 0-15.005 6.716-15.005 15v353.5c0 8.284 6.718 15 15.005 15h354.434c3.988 20.761 22.285 36.5 44.199 36.5 24.821 0 45.015-20.187 45.015-45v-128.891c74.932-38.41 69.861-147.949-8.503-179.081zm-270.115-97.028h90.08v30h-90.08zm-150.025 60h390.13v30.285c-53.766-3.524-100.025 36.379-104.606 89.715-54.174 0-206.412 0-260.515 0-13.79 0-25.008-11.215-25.008-25v-95zm180.06 150h30.01v30h-30.01zm-180.06-6.035c7.509 3.848 16.006 6.035 25.008 6.035h125.042v45c0 8.284 6.718 15 15.005 15h60.02c8.287 0 15.005-6.716 15.005-15v-45h47.446c6.45 29.029 25.459 52.973 51.087 66.109v107.391h-338.613zm383.628 216.035c-8.274 0-15.005-6.729-15.005-15v-59.95h30.01v59.95c0 8.271-6.731 15-15.005 15zm15.005-104.95h-30.01v-29.252c9.78 1.495 19.63 1.586 30.01 0zm-15.005-58.05c-37.872 0-68.523-30.637-68.523-68.5 0-37.859 30.647-68.5 68.523-68.5 37.872 0 68.523 30.637 68.523 68.5 0 37.859-30.648 68.5-68.523 68.5z"/></g></svg>