<svg id="Capa_1" enable-background="new 0 0 512 512" height="512" viewBox="0 0 512 512" width="512" xmlns="http://www.w3.org/2000/svg"><g><path d="m452 181h-1v-105c0-8.284-6.716-15-15-15h-45v-46c0-8.284-6.716-15-15-15h-240c-8.284 0-15 6.716-15 15v46h-45c-8.284 0-15 6.716-15 15v105h-6c-30.327 0-55 24.673-55 55v200c0 8.284 6.716 15 15 15h106v46c0 8.284 6.716 15 15 15h240c8.284 0 15-6.716 15-15v-46h106c8.284 0 15-6.716 15-15v-195c0-33.084-26.916-60-60-60zm-31-90v90h-30v-90zm-270-61h210v151h-210zm-60 61h30v90h-30zm0 330v-91h30v91zm270 61h-210v-152h210zm30-152h30v91h-30zm91 91h-31v-106c0-8.284-6.716-15-15-15h-360c-8.284 0-15 6.716-15 15v106h-31v-185c0-13.785 11.215-25 25-25h397c16.542 0 30 13.458 30 30z"/><circle cx="406" cy="256" r="15"/><circle cx="346" cy="256" r="15"/><path d="m316 361h-120c-8.284 0-15 6.716-15 15s6.716 15 15 15h120c8.284 0 15-6.716 15-15s-6.716-15-15-15z"/><path d="m316 421h-120c-8.284 0-15 6.716-15 15s6.716 15 15 15h120c8.284 0 15-6.716 15-15s-6.716-15-15-15z"/></g></svg>