<svg id="Capa_1" enable-background="new 0 0 512 512" height="512" viewBox="0 0 512 512" width="512" xmlns="http://www.w3.org/2000/svg"><g><path d="m497 0h-482c-8.284 0-15 6.715-15 14.999v359.982c0 8.284 6.716 14.999 15 14.999h180.439c.431.604.862 1.207 1.31 1.797v105.198c0 11.893 13.28 19.136 23.288 12.501l36.963-24.503 36.963 24.504c9.855 6.534 23.288-.468 23.288-12.501v-106.559c.104-.144.207-.291.31-.436h179.439c8.284 0 15-6.715 15-14.999v-359.983c0-8.284-6.716-14.999-15-14.999zm-240.5 391.513c-24.854 0-45-20.243-45-44.998 0-24.812 20.187-44.998 45-44.998s45 20.186 45 44.998c0 24.757-20.148 44.998-45 44.998zm8.788 62.963c-5.023-3.331-11.553-3.331-16.576 0l-21.963 14.56v-53.692c18.859 8.183 40.849 8.42 60.502-.453v54.145zm216.712-94.494h-151.735c8.449-46.391-27.392-88.463-73.765-88.463-46.408 0-82.207 42.112-73.765 88.463h-152.735v-329.983h452z"/><path d="m196 90.996h120c8.284 0 15-6.715 15-14.999s-6.716-14.999-15-14.999h-120c-8.284 0-15 6.715-15 14.999s6.716 14.999 15 14.999z"/><path d="m106 180.991h300c8.284 0 15-6.715 15-14.999s-6.716-14.999-15-14.999h-300c-8.284 0-15 6.715-15 14.999s6.716 14.999 15 14.999z"/><path d="m106 240.988h300c8.284 0 15-6.715 15-14.999s-6.716-14.999-15-14.999h-300c-8.284 0-15 6.715-15 14.999s6.716 14.999 15 14.999z"/></g></svg>