<svg id="Capa_1" enable-background="new 0 0 512 512" height="512" viewBox="0 0 512 512" width="512" xmlns="http://www.w3.org/2000/svg"><g><path d="m507.606 420.394-61-61c-5.853-5.854-15.356-5.858-21.213 0l-47.089 47.09-107.304-125.432v-145.052h105c11.501 0 18.772-12.479 12.993-22.496l-25.756-44.644 25.875-46.576c5.546-9.982-1.686-22.284-13.112-22.284h-120c-8.284 0-15 6.716-15 15v267.459l-107.101 124.228-47.293-47.293c-5.857-5.857-15.355-5.857-21.213 0l-61 61c-2.812 2.812-4.393 6.627-4.393 10.606v66c0 8.284 6.716 15 15 15h482c8.284 0 15-6.716 15-15v-66c0-3.979-1.581-7.794-4.394-10.606zm-339.272-7.704 32.084 32.084c6.104 6.105 16.063 5.793 21.787-.606l32.853-36.733 34.006 37.624c5.745 6.355 15.659 6.625 21.734.548l33.142-33.142 59.488 69.535h-294.848zm88.241-102.351 67.806 79.26-23.638 23.638-34.614-38.296c-5.973-6.607-16.368-6.583-22.309.059l-33.402 37.347-22.44-22.44zm14.425-280.339h79.507l-17.62 31.715c-2.559 4.606-2.514 10.217.12 14.78l17.022 29.505h-79.029zm-241 407.213 46-46 38.257 38.257-45.288 52.53h-38.969zm452 44.787h-39.092l-45.043-52.652 38.135-38.135 46 46z"/></g></svg>