<svg id="Capa_1" enable-background="new 0 0 512 512" height="512" viewBox="0 0 512 512" width="512" xmlns="http://www.w3.org/2000/svg"><g><path d="m429.547 179.981c42.685-43.575 18.016-117.06-41.72-126.566-17.641-58.667-94.751-72.762-131.827-23.381-37.077-49.382-114.186-35.284-131.827 23.381-59.767 9.511-84.389 83.008-41.72 126.566-42.276 43.158-18.623 116.831 41.566 126.539 4.392 15.081 13.65 29.037 26.981 39.048v60.926c0 19.556 12.541 36.23 30 42.422v48.083c0 8.285 6.716 15.001 15 15.001h120c8.284 0 15-6.716 15-15.001v-48.083c17.459-6.192 30-22.866 30-42.422v-60.926c12.591-9.455 22.328-23.074 26.981-39.048 60.121-9.697 83.909-83.314 41.566-126.539zm-315.322 13.119c10.281-5.701 10.293-20.531 0-26.238-34.161-18.944-29.628-69.524 7.427-82.027.473 3.593 1.198 7.145 2.184 10.627 2.26 7.97 10.553 12.599 18.522 10.341 7.97-2.259 12.6-10.552 10.341-18.524-8.141-28.719 13.517-57.307 43.301-57.307 24.813 0 45 20.188 45 45.003v255.515h-45c-32.494 0-56.804-33.996-38.764-69.216 3.776 1.717 12.012 5.088 16.336 5.088 6.526 0 12.531-4.293 14.415-10.88 2.278-7.965-2.333-16.269-10.298-18.547-11.903-3.404-22.428-10.587-29.899-20.09-5.12-6.513-14.549-7.642-21.063-2.52-6.512 5.12-7.641 14.551-2.52 21.064 2.492 3.169 5.206 6.147 8.105 8.942-5.576 9.961-9.114 20.391-10.536 30.837-37.086-12.393-41.832-63.057-7.551-82.068zm96.775 288.898v-30.502h90v30.502zm120-121.507v46.003c0 8.272-6.729 15.001-15 15.001h-120c-8.271 0-15-6.729-15-15.001v-46.003zm66.775-167.391c34.188 18.959 29.636 69.641-7.549 82.069-1.422-10.443-4.958-20.869-10.53-30.826 3.765-3.63 7.202-7.584 10.276-11.843 4.848-6.718 3.332-16.094-3.386-20.943-6.718-4.848-16.093-3.332-20.941 3.386-7.724 10.703-18.932 18.446-31.332 21.992-7.965 2.278-12.576 10.582-10.298 18.547 2.275 7.957 10.571 12.577 18.546 10.299 4.181-1.196 8.253-2.711 12.204-4.507 17.947 35.038-6.117 69.216-38.764 69.216h-45c0-3.738 0-241.887 0-255.515 0-24.814 20.187-45.003 45-45.003 30.676 0 52.52 30.256 42.635 59.451-2.658 7.847 1.549 16.363 9.395 19.02 7.846 2.66 16.362-1.549 19.019-9.396 1.567-4.625 2.661-9.38 3.297-14.214 37.017 12.489 41.631 63.061 7.429 82.028-10.282 5.701-10.294 20.532-.001 26.239z"/><path d="m151 165.98c8.284 0 15-6.716 15-15.001 0-3.291 0-4.073 10.628-9.209 12.855-6.211 34.372-16.608 34.372-50.794 0-8.285-6.716-15.001-15-15.001s-15 6.716-15 15.001c0 15.362-5.823 18.176-17.423 23.781-10.982 5.306-27.577 13.324-27.577 36.222 0 8.285 6.716 15.001 15 15.001z"/><path d="m348.423 114.757c-11.6-5.606-17.423-8.419-17.423-23.781 0-8.285-6.716-15.001-15-15.001s-15 6.716-15 15.001c0 34.187 21.517 44.583 34.372 50.795 10.628 5.135 10.628 5.917 10.628 9.208 0 8.285 6.716 15.001 15 15.001s15-6.716 15-15.001c0-22.898-16.595-30.916-27.577-36.222z"/><path d="m45.603 181.031c0-8.285-6.716-15.001-15-15.001h-15.603c-8.284 0-15 6.716-15 15.001s6.716 15.001 15 15.001h15.603c8.284 0 15-6.717 15-15.001z"/><path d="m43.193 56.585c6.073 5.663 15.563 5.305 21.2-.74 5.65-6.059 5.318-15.551-.74-21.201l-11.411-10.642c-6.059-5.65-15.551-5.318-21.2.74-5.65 6.059-5.318 15.551.74 21.201z"/><path d="m43.193 303.377-11.411 10.641c-6.059 5.651-6.39 15.142-.741 21.201 5.652 6.061 15.142 6.39 21.201.741l11.411-10.641c6.059-5.651 6.39-15.142.741-21.201-5.651-6.06-15.142-6.392-21.201-.741z"/><path d="m497 163.93h-15.603c-8.284 0-15 6.716-15 15.001s6.716 15.001 15 15.001h15.603c8.284 0 15-6.716 15-15.001s-6.716-15.001-15-15.001z"/><path d="m468.807 303.377c-6.059-5.649-15.55-5.318-21.201.741-5.649 6.059-5.318 15.551.741 21.201l11.411 10.641c6.072 5.661 15.562 5.306 21.201-.741 5.649-6.059 5.318-15.551-.741-21.201z"/><path d="m468.807 56.585 11.411-10.642c6.059-5.65 6.39-15.142.74-21.201s-15.142-6.391-21.2-.74l-11.411 10.642c-6.059 5.65-6.39 15.142-.74 21.201 5.65 6.06 15.143 6.389 21.2.74z"/></g></svg>