<svg id="Capa_1" enable-background="new 0 0 512 512" height="512" viewBox="0 0 512 512" width="512" xmlns="http://www.w3.org/2000/svg"><g><path d="m104.999 0h-89.999c-8.284 0-15 6.715-15 14.999v120.994c0 8.284 6.716 14.999 15 14.999h89.999c8.284 0 15-6.715 15-14.999v-120.994c0-8.284-6.716-14.999-15-14.999zm-15 120.994h-59.999v-90.996h60v90.996z"/><path d="m104.999 180.491h-89.999c-8.284 0-15 6.715-15 14.999v120.994c0 8.284 6.716 14.999 15 14.999h89.999c8.284 0 15-6.715 15-14.999v-120.994c0-8.284-6.716-14.999-15-14.999zm-15 120.993h-59.999v-90.995h60v90.995z"/><path d="m104.999 360.981h-89.999c-8.284 0-15 6.715-15 14.999v120.994c0 8.284 6.716 14.999 15 14.999h89.999c8.284 0 15-6.715 15-14.999v-120.994c0-8.283-6.716-14.999-15-14.999zm-15 120.994h-59.999v-90.995h60v90.995z"/><path d="m387.153 95.711-5.261 34.925c-1.806 11.985 10.676 21.08 21.541 15.65l31.592-15.796 31.592 15.796c10.785 5.393 23.357-3.599 21.541-15.65l-5.261-34.925 24.786-25.164c8.506-8.635 3.753-23.331-8.228-25.322l-34.844-5.789-16.274-31.347c-5.588-10.767-21.035-10.771-26.626 0l-16.273 31.348-34.844 5.789c-11.959 1.987-16.75 16.671-8.228 25.322zm30.601-27.91c4.658-.774 8.679-3.696 10.854-7.886l6.416-12.359 6.416 12.359c2.175 4.191 6.197 7.112 10.854 7.886l13.737 2.282-9.772 9.921c-3.313 3.364-4.85 8.091-4.146 12.76l2.074 13.769-12.455-6.227c-2.111-1.056-4.41-1.584-6.708-1.584s-4.597.528-6.708 1.584l-12.455 6.227 2.074-13.769c.704-4.669-.833-9.396-4.146-12.76l-9.772-9.921z"/><path d="m208.076 95.711-5.262 34.926c-1.808 11.999 10.693 21.075 21.541 15.65l31.593-15.796 31.592 15.796c10.85 5.425 23.349-3.65 21.541-15.65l-5.261-34.925 24.786-25.164c8.506-8.635 3.753-23.331-8.228-25.322l-34.844-5.789-16.272-31.348c-5.589-10.766-21.035-10.771-26.626 0l-16.273 31.348-34.844 5.789c-11.959 1.987-16.75 16.671-8.228 25.322zm30.602-27.91c4.658-.774 8.679-3.696 10.854-7.886l6.416-12.359 6.415 12.359c2.176 4.191 6.197 7.112 10.855 7.886l13.738 2.282-9.772 9.921c-3.313 3.364-4.85 8.091-4.146 12.76l2.074 13.769-12.455-6.227c-4.223-2.112-9.194-2.113-13.417 0l-12.455 6.228 2.074-13.769c.704-4.669-.833-9.396-4.146-12.76l-9.772-9.921z"/><path d="m208.076 277.763-5.262 34.926c-1.814 12.036 10.741 21.053 21.541 15.65l31.593-15.797 31.592 15.797c10.839 5.422 23.351-3.641 21.541-15.65l-5.262-34.926 24.787-25.164c8.506-8.635 3.753-23.331-8.228-25.322l-34.844-5.789-16.273-31.348c-5.589-10.766-21.035-10.771-26.626 0l-16.273 31.348-34.844 5.789c-11.959 1.987-16.75 16.671-8.228 25.322zm30.602-27.911c4.658-.774 8.679-3.696 10.854-7.886l6.416-12.359 6.415 12.359c2.176 4.191 6.197 7.112 10.855 7.886l13.738 2.282-9.772 9.92c-3.313 3.364-4.85 8.091-4.146 12.76l2.074 13.769c-10.769-4.988-16.94-10.693-25.872-6.227l-12.455 6.227 2.074-13.769c.704-4.669-.833-9.396-4.146-12.76l-9.772-9.92z"/><path d="m499.454 409.329-34.844-5.789-16.273-31.349c-5.585-10.759-21.032-10.777-26.626 0l-16.273 31.349-34.844 5.789c-11.959 1.987-16.751 16.67-8.228 25.322l24.786 25.163-5.261 34.926c-1.806 11.986 10.68 21.085 21.541 15.65l31.592-15.797 31.592 15.797c10.785 5.395 23.357-3.599 21.541-15.65l-5.261-34.926 24.786-25.163c8.508-8.636 3.752-23.331-8.228-25.322zm-43.195 34.777c-3.313 3.364-4.85 8.091-4.146 12.76l2.074 13.769-12.455-6.227c-4.208-2.104-9.177-2.12-13.417 0l-12.455 6.227 2.074-13.769c.704-4.669-.833-9.396-4.146-12.76l-9.772-9.92 13.737-2.282c4.658-.773 8.679-3.695 10.854-7.885l6.416-12.36 6.416 12.36c2.175 4.19 6.197 7.112 10.854 7.885l13.737 2.282z"/><path d="m320.378 409.329-34.844-5.789-16.273-31.348c-5.584-10.758-21.031-10.78-26.626-.001l-16.273 31.349-34.844 5.789c-11.959 1.987-16.751 16.67-8.228 25.322l24.786 25.163-5.262 34.926c-1.814 12.036 10.741 21.053 21.541 15.65l31.593-15.797 31.592 15.797c10.84 5.423 23.351-3.641 21.541-15.65l-5.261-34.926 24.786-25.163c8.508-8.636 3.751-23.331-8.228-25.322zm-43.195 34.777c-3.313 3.364-4.85 8.091-4.146 12.76l2.074 13.769c-10.937-5.066-13.483-7.811-19.163-7.811-5.678 0-8.224 2.744-19.163 7.811l2.074-13.769c.704-4.669-.833-9.396-4.146-12.76l-9.772-9.92 13.737-2.282c4.658-.773 8.679-3.695 10.854-7.885l6.416-12.359 6.415 12.358c2.176 4.191 6.197 7.113 10.855 7.886l13.737 2.282z"/></g></svg>