<svg id="Capa_1" enable-background="new 0 0 512 512" height="512" viewBox="0 0 512 512" width="512" xmlns="http://www.w3.org/2000/svg"><g><path d="m436 32h-45.075v-17c0-8.284-6.716-15-15-15s-15 6.716-15 15v17h-90v-17c0-8.284-6.716-15-15-15s-15 6.716-15 15v17h-89.976v-17c0-8.284-6.716-15-15-15s-15 6.716-15 15v17h-44.949c-8.284 0-15 6.716-15 15v450c0 8.284 6.716 15 15 15h360c8.284 0 15-6.716 15-15v-450c0-8.284-6.716-15-15-15zm-315.051 30v11.939c0 8.284 6.716 15 15 15s15-6.716 15-15v-11.939h89.976v11.939c0 8.284 6.716 15 15 15s15-6.716 15-15v-11.939h90v11.939c0 8.284 6.716 15 15 15s15-6.716 15-15v-11.939h30.075v89h-330v-89zm-29.949 420v-301h330v301z"/><path d="m271.024 226h-30.1c-8.284 0-15 6.716-15 15s6.716 15 15 15h30.1c8.284 0 15-6.716 15-15s-6.715-15-15-15z"/><path d="m361.024 226h-30.1c-8.284 0-15 6.716-15 15s6.716 15 15 15h30.1c8.284 0 15-6.716 15-15s-6.715-15-15-15z"/><path d="m181.024 286h-30.1c-8.284 0-15 6.716-15 15s6.716 15 15 15h30.1c8.284 0 15-6.716 15-15s-6.715-15-15-15z"/><path d="m271.024 286h-30.1c-8.284 0-15 6.716-15 15s6.716 15 15 15h30.1c8.284 0 15-6.716 15-15s-6.715-15-15-15z"/><path d="m361.024 286h-30.1c-8.284 0-15 6.716-15 15s6.716 15 15 15h30.1c8.284 0 15-6.716 15-15s-6.715-15-15-15z"/><path d="m181.024 346h-30.1c-8.284 0-15 6.716-15 15s6.716 15 15 15h30.1c8.284 0 15-6.716 15-15s-6.715-15-15-15z"/><path d="m271.024 346h-30.1c-8.284 0-15 6.716-15 15s6.716 15 15 15h30.1c8.284 0 15-6.716 15-15s-6.715-15-15-15z"/><path d="m361.024 346h-30.1c-8.284 0-15 6.716-15 15s6.716 15 15 15h30.1c8.284 0 15-6.716 15-15s-6.715-15-15-15z"/><path d="m181.036 405.938c-2.303-.002-31.716-.026-30.111-.024-8.278 0-14.993 6.708-15 14.988-.007 8.284 6.703 15.005 14.988 15.012.117 0 30.219.024 30.111.024 8.278 0 14.993-6.708 15-14.988.007-8.284-6.703-15.005-14.988-15.012z"/><path d="m271.037 406.013c-1.932-.002-32.036-.027-30.112-.025-8.278 0-14.993 6.708-15 14.987-.007 8.284 6.703 15.006 14.987 15.013.117 0 30.22.025 30.112.025 8.278 0 14.993-6.708 15-14.987.007-8.285-6.703-15.006-14.987-15.013z"/></g></svg>