<svg id="Capa_1" enable-background="new 0 0 512 512" height="512" viewBox="0 0 512 512" width="512" xmlns="http://www.w3.org/2000/svg"><g><path d="m256 151c24.813 0 45-20.187 45-45s-20.187-45-45-45-45 20.187-45 45 20.187 45 45 45zm0-60c8.271 0 15 6.729 15 15s-6.729 15-15 15-15-6.729-15-15 6.729-15 15-15z"/><path d="m75 392c-41.355 0-75 33.645-75 75v30c0 8.284 6.716 15 15 15h120c8.284 0 15-6.716 15-15v-30c0-41.355-33.645-75-75-75zm45 90h-90v-15c0-24.813 20.187-45 45-45s45 20.187 45 45z"/><path d="m437 392c-41.355 0-75 33.645-75 75v30c0 8.284 6.716 15 15 15h120c8.284 0 15-6.716 15-15v-30c0-41.355-33.645-75-75-75zm45 90h-90v-15c0-24.813 20.187-45 45-45s45 20.187 45 45z"/><path d="m256 392c-41.355 0-75 33.645-75 75v30c0 8.284 6.716 15 15 15h120c8.284 0 15-6.716 15-15v-30c0-41.355-33.645-75-75-75zm45 90h-90v-15c0-24.813 20.187-45 45-45s45 20.187 45 45z"/><path d="m422.05 211.5v93.08c-17.459 6.192-30 22.865-30 42.42 0 24.813 20.187 45 45 45s45-20.187 45-45c0-19.555-12.541-36.228-30-42.42v-108.08c0-8.284-6.716-15-15-15h-53.544c31.843-87.961-33.654-181.5-127.456-181.5-93.958 0-159.259 93.651-127.456 181.5h-52.594c-8.284 0-15 6.716-15 15v107.758c-17.952 5.916-30.95 22.834-30.95 42.742 0 24.813 20.187 45 45 45s45-20.187 45-45c0-19.198-12.088-35.618-29.05-42.07v-93.43h52.926c21.744 31.977 56.795 54.203 97.124 58.665v34.415c-17.459 6.192-30 22.865-30 42.42 0 24.813 20.187 45 45 45s45-20.187 45-45c0-19.555-12.541-36.228-30-42.42v-34.415c40.329-4.462 75.38-26.689 97.124-58.665zm15 150.5c-8.271 0-15-6.729-15-15s6.729-15 15-15 15 6.729 15 15-6.729 15-15 15zm-362 0c-8.271 0-15-6.729-15-15s6.729-15 15-15 15 6.729 15 15-6.729 15-15 15zm181-332c58.173 0 105.5 47.327 105.5 105.5 0 29.659-12.307 56.494-32.077 75.679-6.899-34.28-37.24-60.179-73.523-60.179-36.225 0-66.53 25.815-73.493 60.014-19.67-19.174-31.907-45.94-31.907-75.514 0-58.173 47.327-105.5 105.5-105.5zm-45.1 200.861v-4.861c0-24.813 20.187-45 45-45s45 20.187 45 45v4.954c-28.431 13.427-61.57 13.407-90-.093zm45.1 131.139c-8.271 0-15-6.729-15-15s6.729-15 15-15 15 6.729 15 15-6.729 15-15 15z"/></g></svg>