<svg id="Capa_1" enable-background="new 0 0 512 512" height="512" viewBox="0 0 512 512" width="512" xmlns="http://www.w3.org/2000/svg"><g><path d="m497 0c-15.503 0-476.509 0-482 0-8.284 0-15 6.716-15 15v482c0 8.284 6.716 15 15 15h482c8.284 0 15-6.716 15-15v-482c0-8.284-6.716-15-15-15zm-467 30h330.65v332h-105.1c-8.284 0-15 6.716-15 15v105h-210.55zm309.337 362-68.787 68.787v-68.787zm82.263 90h-129.837l93.414-93.414c3.342-2.751 5.474-6.919 5.474-11.586v-347h30.949zm60.4 0h-30.4v-452h30.4z"/><path d="m77.182 211h238.868c8.284 0 15-6.716 15-15s-6.716-15-15-15h-238.868c-8.284 0-15 6.716-15 15s6.715 15 15 15z"/><path d="m77.182 151h238.868c8.284 0 15-6.716 15-15s-6.716-15-15-15h-238.868c-8.284 0-15 6.716-15 15s6.715 15 15 15z"/><path d="m77.182 271h238.368c8.284 0 15-6.716 15-15s-6.716-15-15-15h-238.368c-8.284 0-15 6.716-15 15s6.715 15 15 15z"/><path d="m77.182 331h238.368c8.284 0 15-6.716 15-15s-6.716-15-15-15h-238.368c-8.284 0-15 6.716-15 15s6.715 15 15 15z"/><path d="m76.05 391h120.566c8.284 0 15-6.716 15-15s-6.716-15-15-15h-120.566c-8.284 0-15 6.716-15 15s6.716 15 15 15z"/><path d="m196.616 421h-120.566c-8.284 0-15 6.716-15 15s6.716 15 15 15h120.566c8.284 0 15-6.716 15-15s-6.716-15-15-15z"/><path d="m136.333 91h119.667c8.284 0 15-6.716 15-15s-6.716-15-15-15h-119.667c-8.284 0-15 6.716-15 15s6.716 15 15 15z"/></g></svg>