<svg id="Capa_1" enable-background="new 0 0 512 512" height="512" viewBox="0 0 512 512" width="512" xmlns="http://www.w3.org/2000/svg"><g><path d="m266.608 338.988c-5.857-5.857-15.355-5.857-21.213 0l-42.355 42.355c-5.858 5.857-5.858 15.355 0 21.213l42.355 42.355c5.858 5.858 15.355 5.858 21.213 0l42.355-42.355c5.858-5.857 5.858-15.355 0-21.213zm-10.606 74.105-21.142-21.143 21.142-21.143 21.142 21.143z"/><path d="m450.212 22.5c5.752-9.963-1.424-22.5-12.991-22.5l-120.27.003c-5.359 0-10.311 2.859-12.99 7.5l-47.959 83.068-47.959-83.068c-2.679-4.641-7.631-7.5-12.99-7.5-1.84 0-121.637-.003-120.271-.003-11.508 0-18.77 12.489-12.99 22.5l119.161 206.395v69.431c-27.416 22.021-45 55.805-45 93.625 0 66.195 53.854 120.05 120.05 120.05s120.05-53.854 120.05-120.05c0-37.819-17.584-71.604-45-93.625v-69.431zm-124.601 7.503 85.63-.002-95.104 164.727-42.815-74.158zm-139.219 0 103.922 179.997h-85.63l-103.921-179.999zm159.66 361.947c0 49.653-40.396 90.05-90.05 90.05s-90.05-40.396-90.05-90.05 40.396-90.05 90.05-90.05 90.05 40.397 90.05 90.05zm-135.1-111.27v-40.68h90.1v40.68c-28.076-11.408-60.544-12.009-90.1 0z"/></g></svg>