<svg id="Capa_1" enable-background="new 0 0 512 512" height="512" viewBox="0 0 512 512" width="512" xmlns="http://www.w3.org/2000/svg"><g><path d="m450.455 353.583-41.42-71c7.204-61.936-18.17-123.402-68.762-161.516v-69.863c4.419 3.616 7.944 10.685 16.898 10.685 13.243 0 20.084-16.13 10.606-25.607l-31.896-31.895c-5.854-5.857-15.381-5.841-21.218 0l-31.895 31.895c-5.858 5.858-5.858 15.356 0 21.213 5.858 5.859 15.355 5.859 21.213 0l6.292-6.292v51.66c-23.375-11.164-49.187-17.157-75.71-17.157-154.458 0-234.821 187.508-125.292 298.918v111.553c0 8.252 6.665 14.954 14.917 15 135.02.752 147.597.823 147.767.823 8.282 0 15-6.72 15-15v-22.113h59.381c21.491 0 38.975-17.473 38.975-38.951v-50.782h47.016c16.085 0 26.307-17.492 18.128-31.571zm-80.144 1.57c-8.284 0-15 6.716-15 15v65.782c0 4.936-4.026 8.95-8.975 8.95h-74.381c-8.284 0-15 6.716-15 15v22.029l-117.685-.654v-72.182c5.459 3.528 11.127 6.763 16.979 9.681 7.412 3.694 16.42.684 20.117-6.73s.684-16.421-6.729-20.119c-49.813-24.842-80.784-74.835-80.784-130.492 0-113.497 124.709-183.317 221.419-124.487v126.449c0 41.356-33.645 75.001-75 75.001s-75-33.645-75-75.001c0-51.91 51.682-88.057 100.257-70.627 7.796 2.802 16.387-1.255 19.185-9.052 2.798-7.798-1.255-16.387-9.052-19.185-68.148-24.46-140.39 26.319-140.39 98.864 0 57.899 47.103 105.002 105 105.002s105-47.103 105-105.002v-102.234c31.077 32.746 45.087 76.606 38.382 122.396-.493 3.364.172 6.796 1.885 9.733l36.1 61.879h-46.328z"/><path d="m235.272 218.379c-24.813 0-45 20.187-45 45.001s20.187 45.001 45 45.001 45-20.187 45-45.001-20.187-45.001-45-45.001zm0 60.001c-8.271 0-15-6.729-15-15 0-8.272 6.729-15 15-15s15 6.729 15 15c0 8.272-6.729 15-15 15z"/></g></svg>