<svg id="Capa_1" enable-background="new 0 0 512.005 512.005" height="512" viewBox="0 0 512.005 512.005" width="512" xmlns="http://www.w3.org/2000/svg"><g><path d="m256.028 74.95c-41.369 0-75.025 33.656-75.025 75.024 0 41.369 33.656 75.025 75.025 75.025s75.025-33.656 75.025-75.025c0-41.368-33.657-75.024-75.025-75.024zm0 120.05c-24.827 0-45.025-20.198-45.025-45.025 0-24.826 20.198-45.024 45.025-45.024s45.025 20.198 45.025 45.024c0 24.827-20.199 45.025-45.025 45.025z"/><path d="m512.003 15c0-8.284-6.716-15-15-15h-482c-8.284 0-15 6.716-15 15v270c0 8.284 6.716 15 15 15h482c8.284 0 15-6.716 15-15 0-19.212 0-259.049 0-270zm-118.874 255h-274.202c-6.597-45.916-43.008-82.327-88.924-88.924v-62.152c45.915-6.597 82.327-43.008 88.924-88.924h274.202c6.595 45.899 42.982 82.301 88.874 88.917v62.166c-45.892 6.616-82.28 43.018-88.874 88.917zm88.874-181.518c-29.32-5.996-52.464-29.155-58.441-58.482h58.441zm-393.509-58.482c-5.98 29.344-29.147 52.51-58.491 58.491v-58.491zm-58.491 181.509c29.344 5.98 52.51 29.147 58.491 58.491h-58.491zm393.559 58.491c5.977-29.327 29.121-52.486 58.441-58.482v58.482z"/><path d="m136.053 134.975h-30c-8.284 0-15 6.716-15 15s6.716 15 15 15h30c8.284 0 15-6.716 15-15s-6.716-15-15-15z"/><path d="m406.053 134.975h-30.1c-8.284 0-15 6.716-15 15s6.716 15 15 15h30.1c8.284 0 15-6.716 15-15s-6.716-15-15-15z"/><path d="m256.098 354.899c-57.418-51.489-150.021-11.052-150.021 67.001 0 77.438 92.177 118.698 149.908 67.102 57.42 51.62 150.092 10.768 150.092-67.002 0-77.753-92.536-118.557-149.979-67.101zm-60.021 127.001c-33.084 0-60-26.916-60-60s26.916-60 60-60 60 26.916 60 60-26.916 60-60 60zm78.705-16.391c15.012-26.986 15.098-59.97.073-87.086 37.805-35.818 101.222-9.335 101.222 43.578 0 52.821-63.454 79.488-101.295 43.508z"/></g></svg>