<svg id="Capa_1" enable-background="new 0 0 512 512" height="512" viewBox="0 0 512 512" width="512" xmlns="http://www.w3.org/2000/svg"><g><path d="m195.438 241h30.1c8.284 0 15-6.716 15-15s-6.716-15-15-15h-30.1c-8.284 0-15 6.716-15 15s6.715 15 15 15z"/><path d="m285.438 241h30.1c8.284 0 15-6.716 15-15s-6.716-15-15-15h-30.1c-8.284 0-15 6.716-15 15s6.715 15 15 15z"/><path d="m135.537 271h-30.1c-8.284 0-15 6.716-15 15s6.716 15 15 15h30.1c8.284 0 15-6.716 15-15s-6.716-15-15-15z"/><path d="m195.438 301h30.1c8.284 0 15-6.716 15-15s-6.716-15-15-15h-30.1c-8.284 0-15 6.716-15 15s6.715 15 15 15z"/><path d="m135.537 331h-30.1c-8.284 0-15 6.716-15 15s6.716 15 15 15h30.1c8.284 0 15-6.716 15-15s-6.716-15-15-15z"/><path d="m135.549 390.938c-2.303-.002-31.716-.026-30.111-.024-8.278 0-14.993 6.708-15 14.988-.007 8.284 6.703 15.005 14.988 15.012.117 0 30.219.024 30.111.024 8.278 0 14.993-6.708 15-14.988.007-8.284-6.703-15.005-14.988-15.012z"/><path d="m405.513 249.378v-202.378c0-8.284-6.716-15-15-15h-45.075v-17c0-8.284-6.716-15-15-15s-15 6.716-15 15v17h-89.9v-17c0-8.284-6.716-15-15-15s-15 6.716-15 15v17h-90.074v-17c0-8.284-6.716-15-15-15s-15 6.716-15 15v17h-44.95c-8.284 0-15 6.716-15 15v419c0 8.284 6.716 15 15 15h244.993c23.368 19.354 53.34 31 85.982 31 74.439 0 135-60.561 135-135-.002-59.031-38.088-109.326-90.976-127.622zm-330.05-187.378v11.939c0 8.284 6.716 15 15 15s15-6.716 15-15v-11.939h90.074v11.939c0 8.284 6.716 15 15 15s15-6.716 15-15v-11.939h89.9v11.939c0 8.284 6.716 15 15 15s15-6.716 15-15v-11.939h30.075v89h-330v-89zm-29.95 119h330v61.726c-4.611-.478-9.29-.726-14.025-.726-58.294 0-108.073 37.141-126.925 89h-39.125c-8.284 0-15 6.716-15 15s6.716 15 15 15h32.002c-1.228 10.353-1.23 20.336-.229 30.005-6.613-.004-31.952-.018-31.773-.018-8.28 0-14.995 6.71-15 14.991-.005 8.284 6.707 15.004 14.991 15.009l38.431.022c3.687 10.663 8.676 20.722 14.775 29.991h-203.122zm315.974 301c-57.897 0-105-47.103-105-105s47.103-105 105-105 105 47.103 105 105-47.102 105-105 105z"/><path d="m371.487 311c-8.284 0-15 6.716-15 15v45h-30.95c-8.284 0-15 6.716-15 15s6.716 15 15 15h45.95c8.284 0 15-6.716 15-15v-60c0-8.284-6.716-15-15-15z"/></g></svg>