<svg id="Capa_1" enable-background="new 0 0 512 512" height="512" viewBox="0 0 512 512" width="512" xmlns="http://www.w3.org/2000/svg"><g><path d="m452.78 181h-30.1c-8.874 0-15.805 7.668-14.926 16.487l13.307 133.513h-28.331v-15c0-8.284-6.716-15-15-15h-105v-31h89.95c8.284 0 15-6.716 15-15v-240c0-8.284-6.716-15-15-15h-210c-8.284 0-15 6.716-15 15v240c0 8.284 6.716 15 15 15h90.05v31h-105c-8.284 0-15 6.716-15 15v15h-28.777l10.495-133.827c.683-8.711-6.207-16.173-14.954-16.173h-30.274c-8.284 0-15 6.716-15 15s6.716 15 15 15h14.052l-10.496 133.827c-.684 8.711 6.207 16.173 14.954 16.173h45v15c0 8.284 6.716 15 15 15h105v45.05h-105.1c-8.284 0-15 6.716-15 15v45.95c0 8.284 6.716 15 15 15s15-6.716 15-15v-30.95h90.1v30.95c0 8.284 6.716 15 15 15s15-6.716 15-15v-30.95h89.933l.067 30.982c.018 8.274 6.73 14.969 15 14.968 8.284 0 15.019-6.722 15-15.032l-.1-45.95c-.018-8.271-6.729-14.968-15-14.968h-104.9v-45.05h105c8.284 0 15-6.716 15-15v-15h44.9c8.874 0 15.805-7.668 14.926-16.487l-13.306-133.513h13.531c8.284 0 15-6.716 15-15s-6.717-15-15.001-15zm-285.1-151h180v210h-180zm195.05 331h-210v-30h210z"/></g></svg>