<svg id="Capa_1" enable-background="new 0 0 512 512" height="512" viewBox="0 0 512 512" width="512" xmlns="http://www.w3.org/2000/svg"><g><path d="m511.609 493.641v-297.641c0-8.284-6.716-15-15-15h-61.318c-8.284 0-15 6.716-15 15v286h-28.682v-226c0-8.284-6.716-15-15-15h-61.318c-8.284 0-15 6.716-15 15v226h-28.582v-226c0-8.284-6.716-15-15-15h-61.318c-8.284 0-15 6.716-15 15v226h-29.341v-136c0-8.284-6.716-15-15-15h-61.317c-8.284 0-15 6.716-15 15v136h-29.733v-467c0-8.284-6.716-15-15-15s-15 6.716-15 15v482c0 8.284 6.716 15 15 15h482c9.507 0 16.796-8.816 14.609-18.359zm-61.318-282.641h31.318v271h-31.318zm-120 60h31.318v211h-31.318zm-119.9 0h31.318v211h-31.318zm-120.658 90h31.317v121h-31.317z"/><path d="m114.998 268.002 116.051-87.002h114.902c3.978 0 7.793-1.58 10.606-4.394l94.394-94.394v23.788c0 8.284 6.716 15 15 15s15-6.716 15-15c-.001-14.225.002-59.068-.002-60.044-.025-8.301-6.833-14.956-14.998-14.956h-58.9c-8.284 0-15 6.716-15 15s6.716 15 15 15h22.687l-90 90c-117.038 1.025-115.599-2.315-122.685 2.998l-120.05 90c-6.628 4.97-7.974 14.371-3.004 21 4.952 6.607 14.351 7.988 20.999 3.004z"/></g></svg>