<svg id="Capa_1" enable-background="new 0 0 512 512" height="512" viewBox="0 0 512 512" width="512" xmlns="http://www.w3.org/2000/svg"><g><path d="m484.238 210.371 25.032-35.771c6.942-9.918-.163-23.601-12.289-23.601h-84.535c-25.449-86.289-105.249-150.999-201.954-150.999-116.066 0-210.492 94.43-210.492 210.5 0 57.664 23.312 109.979 60.998 148.035v138.465c0 8.284 6.716 15 14.999 15h89.997c8.284 0 14.999-6.716 14.999-15v-78.077c19.469 2.743 39.589 2.839 59.998-.128v78.205c0 8.284 6.716 15 14.999 15h89.897c8.284 0 14.999-6.716 14.999-15v-139.098c23.39-23.844 41.261-53.412 51.27-86.902h84.825c12.001 0 19.154-13.451 12.425-23.401zm-333.244 271.629h-59.997v-98.31c18.146 12.56 38.35 22.343 59.998 28.732v69.578zm-120.995-271.5c0-99.528 80.969-180.5 180.493-180.5 78.566 0 147.347 50.391 171.484 124.016-3.58 2.692-2.803 3.164-23.102 32.931-11.431-71.602-73.612-126.497-148.382-126.497-82.859 0-150.27 67.413-150.27 150.274 0 82.862 67.411 150.275 150.27 150.275 74.716 0 136.862-54.817 148.357-126.346 20.35 30.263 19.528 30.506 22.86 33.128-24.274 72.862-92.687 123.219-171.217 123.219-99.524 0-180.493-80.972-180.493-180.5zm269.512-14.775c-7.165-42.663-44.352-75.274-89.019-75.274-49.777 0-90.272 40.497-90.272 90.274 0 49.778 40.496 90.275 90.272 90.275 44.667 0 81.854-32.612 89.019-75.275h30.318c-7.405 59.267-58.098 105.275-119.337 105.275-66.318 0-120.271-53.955-120.271-120.275 0-66.319 53.953-120.274 120.271-120.274 61.239 0 111.931 46.008 119.337 105.274zm-89.019 30h58.383c-6.684 26.003-30.324 45.275-58.383 45.275-33.235 0-60.273-27.039-60.273-60.275 0-33.235 27.038-60.274 60.273-60.274 28.058 0 51.699 19.272 58.383 45.274h-58.383c-8.284 0-14.999 6.716-14.999 15s6.715 15 14.999 15zm60.498 256.275v-69.834c21.541-6.445 41.732-16.262 59.898-28.913v98.747zm128.05-241-20.027-30.225 19.972-29.775h69.192l-14.433 20.624c-3.563 5.092-3.618 11.854-.137 17.002l15.127 22.374z"/></g></svg>