<svg id="Capa_1" enable-background="new 0 0 512 512" height="512" viewBox="0 0 512 512" width="512" xmlns="http://www.w3.org/2000/svg"><g><path d="m497 331h-145.667v-105c0-8.284-6.716-15-15-15h-65.283v-91h104.574c11.937 0 19.112-13.328 12.498-23.295l-24.389-36.746 24.38-36.651c6.622-9.953-.53-23.308-12.489-23.308h-119.574c-8.284 0-15 6.716-15 15v196h-65.383c-8.284 0-15 6.716-15 15v75h-145.667c-8.284 0-15 6.716-15 15v181c0 8.284 6.716 15 15 15h482c8.284 0 15-6.716 15-15v-151c0-8.284-6.716-15-15-15zm-225.95-301h76.581l-14.396 21.643c-3.345 5.028-3.348 11.571-.009 16.603l14.439 21.754h-76.615zm-241.05 301h130.667v151h-130.667zm160.667-90h130.666v241h-130.666c0-19.949 0-232.022 0-241zm291.333 241h-130.667v-121h130.667z"/><path d="m276 331h-5v-45c0-8.284-6.716-15-15-15h-18.571c-8.284 0-15 6.716-15 15s6.716 15 15 15h3.571v30h-8.571c-8.284 0-15 6.716-15 15s6.716 15 15 15h43.571c8.284 0 15-6.716 15-15s-6.716-15-15-15z"/></g></svg>