<svg id="Capa_1" enable-background="new 0 0 512 512" height="512" viewBox="0 0 512 512" width="512" xmlns="http://www.w3.org/2000/svg"><g><path d="m436 0h-360c-8.284 0-15 6.716-15 15v482c0 8.284 6.716 15 15 15h360c8.284 0 15-6.716 15-15v-482c0-8.284-6.716-15-15-15zm-15 482h-330v-452h330z"/><path d="m135.95 210.95c0 66.166 53.832 120 120 120s120-53.832 120-120-53.832-120-120-120-120 53.832-120 120zm61.697 68.502 23.471-19.695c34.296 24.547 82.472 6.692 92.934-33.807h30.642c-11.527 68.406-93.838 98.857-147.047 53.502zm58.303-98.502c16.542 0 30 13.458 30 30s-13.458 30-30 30-30-13.458-30-30 13.458-30 30-30zm88.743 15h-30.642c-5.439-21.053-22.048-37.663-43.101-43.101v-30.642c37.631 6.341 67.403 36.113 73.743 73.743zm-103.743-73.743v30.642c-36.62 9.46-55.34 50.149-39.139 83.948l-23.463 19.688c-31.661-53.752.229-123.768 62.602-134.278z"/><path d="m136 390.95h44.9c8.284 0 15-6.716 15-15s-6.716-15-15-15h-44.9c-8.284 0-15 6.716-15 15s6.716 15 15 15z"/><path d="m255.85 420.95h-119.85c-8.284 0-15 6.716-15 15s6.716 15 15 15h119.85c8.284 0 15-6.716 15-15s-6.716-15-15-15z"/><path d="m241 360.95c-8.284 0-15 6.716-15 15s6.716 15 15 15h134.9c8.284 0 15-6.716 15-15s-6.716-15-15-15z"/><path d="m376 420.95h-60.05c-8.284 0-15 6.716-15 15s6.716 15 15 15h60.05c8.284 0 15-6.716 15-15s-6.716-15-15-15z"/><path d="m135.95 91h30.1c8.284 0 15-6.716 15-15s-6.716-15-15-15h-30.1c-8.284 0-15 6.716-15 15s6.716 15 15 15z"/></g></svg>