<svg id="Capa_1" enable-background="new 0 0 512 512" height="512" viewBox="0 0 512 512" width="512" xmlns="http://www.w3.org/2000/svg"><g><path d="m380.024 322.455-79.074-13.178v-17.411c31.894-15.105 54.091-45.381 59.051-80.197 22.896-2.054 40.899-21.348 40.899-44.769 0-23.062-17.458-42.122-39.85-44.663 0-21.739 0-40.13 0-61.636 0-33.415-27.186-60.601-60.602-60.601h-119.423c-33.07 0-59.975 26.904-59.975 59.975.154.654-2.608 36.498 29.9 61.003v1.255c-22.418 2.517-39.9 21.589-39.9 44.668 0 23.436 18.028 42.74 40.945 44.772 4.949 34.775 27.13 65.052 59.005 80.169v17.456l-79.017 13.162c-41.159 6.856-71.033 42.118-71.033 83.845v90.695c0 8.284 6.716 15 15 15h360.1c8.284 0 15-6.716 15-15v-90.701c0-41.723-29.871-76.985-71.026-83.844zm-112.827 69.024h-22.405l-2.478-29.479h27.336zm-22.719 30h23.096l6.719 60.521h-36.304zm-93.428-361.504c0-16.529 13.447-29.975 29.975-29.975h119.423c16.874 0 30.602 13.728 30.602 30.602v15.348h-135.1c-8.284 0-15 6.716-15 15v12.475c-17.027-5.986-29.9-22.353-29.9-42.274zm29.9 136.875c0-8.284-6.716-15-15-15h-9.95c-8.244 0-14.95-6.706-14.95-14.949s6.707-14.95 14.95-14.95h9.95c8.284 0 15-6.716 15-15v-2.479c5.118 1.029 10.068 1.479 15.025 1.479 8.274-.014 14.975-6.726 14.975-15v-15h120.1v31c0 8.284 6.716 15 15 15h9.9c8.243 0 14.95 6.707 14.95 14.95s-6.707 14.949-14.95 14.949h-9.9c-8.284 0-15 6.767-15 15.051 0 31.781-20.128 60.231-50.087 70.795-6 2.115-10.012 7.785-10.012 14.146v50.158h-29.951c0-5.303 0-44.868 0-50.176 0-6.358-4.009-12.025-10.004-14.144-29.934-10.574-50.046-39.018-50.046-70.83zm-90 209.455c0-27 19.33-49.816 45.962-54.253l74.088-12.341c.045 15.176-.667-3.649 4.932 66.594l-8.116 75.695h-116.866zm330.1 75.695h-116.574l-8.407-75.729c9.982-120.5 1.434-14.073 4.881-66.581l74.142 12.356c26.63 4.438 45.958 27.255 45.958 54.252z"/></g></svg>