<svg id="Capa_1" enable-background="new 0 0 512 512" height="512" viewBox="0 0 512 512" width="512" xmlns="http://www.w3.org/2000/svg"><g><path d="m497 91h-46.05v-76c0-8.284-6.716-15-15-15h-179.95c-8.284 0-15 6.716-15 15 0 4.895-.002 29.918.003 31.05h-14.953c-8.284 0-15 6.716-15 15v29.95h-196.05c-8.284 0-15 6.716-15 15v270.587c0 8.284 6.716 15 15 15h345.95v30.413h-254.85c-24.813 0-45 20.187-45 45s20.187 45 45 45h225.567c32.688 0 59.283-26.594 59.283-59.282v-.718h15c24.813 0 45-20.187 45-45v-15.413h46.05c8.284 0 15-6.716 15-15v-270.587c0-8.284-6.716-15-15-15zm-136.05 361.718c0 16.146-13.136 29.282-29.283 29.282h-225.567c-8.271 0-15-6.729-15-15s6.729-15 15-15h254.85zm60-361.718h-30v-61h30zm-149.95-61h89.95v61h-60v-29.95c0-8.284-6.716-15-15-15h-14.953c.005-1.18.002-11.994.003-16.05zm-.05 46.05v29.9h-29.9v-29.9zm150 330.95c0 8.271-6.729 15-15 15h-15v-30.413h30zm61.05-45.413h-452v-240.587h181.052c.027 8.261 6.73 14.95 14.997 14.95h59.9c8.267 0 14.97-6.689 14.997-14.95h181.054z"/><path d="m135.95 240.85c24.771 0 44.925-20.153 44.925-44.925s-20.153-44.925-44.925-44.925-44.925 20.153-44.925 44.925 20.153 44.925 44.925 44.925zm0-59.85c8.229 0 14.925 6.695 14.925 14.925s-6.695 14.925-14.925 14.925-14.925-6.695-14.925-14.925 6.695-14.925 14.925-14.925z"/><path d="m135.975 241c-41.341 0-74.975 33.634-74.975 75 0 8.284 6.716 15 15 15h119.95c8.284 0 15-6.741 15-15.025 0-41.341-33.634-74.975-74.975-74.975zm-42.412 60c14.124-39.887 70.689-39.918 84.824 0z"/><path d="m256.05 165.95c-8.284 0-15 6.716-15 15s6.716 15 15 15h179.9c8.284 0 15-6.716 15-15s-6.716-15-15-15z"/><path d="m256.05 255.8h179.9c8.284 0 15-6.716 15-15s-6.716-15-15-15h-179.9c-8.284 0-15 6.716-15 15s6.716 15 15 15z"/><path d="m436.05 285.95h-180c-8.284 0-15 6.716-15 15s6.716 15 15 15h180c8.284 0 15-6.716 15-15s-6.716-15-15-15z"/></g></svg>