<svg id="Capa_1" enable-background="new 0 0 512 512" height="512" viewBox="0 0 512 512" width="512" xmlns="http://www.w3.org/2000/svg"><g><path d="m356.05 0h-200.1c-35.841 0-65 29.159-65 65v382c0 35.841 29.159 65 65 65h200.1c35.841 0 65-29.159 65-65v-382c0-35.841-29.159-65-65-65zm35 447c0 19.299-15.701 35-35 35h-200.1c-19.299 0-35-15.701-35-35v-382c0-19.299 15.701-35 35-35h200.1c19.299 0 35 15.701 35 35z"/><path d="m346.05 61h-180.1c-8.284 0-15 6.716-15 15v60c0 8.284 6.716 15 15 15h180c8.274 0 14.986-6.7 15-14.976l.1-60c.014-8.288-6.708-15.024-15-15.024zm-15.075 60h-150.025v-30h150.075z"/><path d="m346.05 181h-180c-8.284 0-15 6.716-15 15v240c0 8.284 6.716 15 15 15h180c8.284 0 15-6.716 15-15v-240c0-8.284-6.716-15-15-15zm-75 240h-30v-29.261h30zm0-59.261h-30v-30.739h30zm-90-90.739h30v30h-30zm0 60h30v30.739h-30zm60-30v-30h30v30zm0-60v-30h30v30zm60 30h30v30h-30zm30-30h-30v-30h30zm-120-30v30h-30v-30zm-30 180.739h30v29.261h-30zm120 29.261v-90h30v90z"/></g></svg>