<svg id="Capa_1" enable-background="new 0 0 512 512" height="512" viewBox="0 0 512 512" width="512" xmlns="http://www.w3.org/2000/svg"><g><path d="m452.669 161.356-42.426-42.426c-5.857-5.857-15.355-5.857-21.213 0l-31.591 31.591c-16.983-10.387-35.673-18.239-55.539-23.051v-7.496c32.623-.538 59-27.226 59-59.975 0-33.084-26.916-60-60-60h-89.9c-33.084 0-60 26.916-60 60 0 33.051 26.862 59.943 59.9 59.998v7.277c-20.165 4.793-39.128 12.72-56.34 23.247l-31.591-31.591c-5.857-5.857-15.355-5.857-21.213 0l-42.426 42.426c-5.858 5.857-5.858 15.355 0 21.213l31.268 31.268c-80.15 128.042 11.407 298.163 165.402 298.163 154.074 0 245.5-170.204 165.401-298.163l31.268-31.268c5.858-5.857 5.858-15.355 0-21.213zm-271.669-101.356c0-16.542 13.458-30 30-30h89.9c16.542 0 30 13.458 30 30 0 16.207-12.92 29.444-29 29.975v-13.975c0-8.284-6.716-15-15-15h-61c-8.284 0-15 6.716-15 15v13.998c-16.496-.055-29.9-13.489-29.9-29.998zm59.9 62v-31h31v31zm-149.75 49.963 21.213-21.213 17.592 17.592c-7.633 6.482-14.771 13.53-21.329 21.096zm164.85 310.037c-90.981 0-165-74.019-165-165s74.019-165 165-165 165 74.019 165 165-74.019 165-165 165zm126.045-313.658 17.592-17.592 21.213 21.213-17.475 17.475c-6.559-7.566-13.697-14.614-21.33-21.096z"/><path d="m255.783 182.001c-8.23.063-14.883 6.755-14.883 15v119.999c0 8.284 6.716 15 15 15h120.1c8.284 0 15-6.716 15-15 0-73.461-59.516-134.999-135.217-134.999zm15.117 119.999v-88.946c45.965 6.558 82.43 42.996 89.031 88.946z"/><path d="m209.592 205.921c-4.143-7.176-13.317-9.635-20.49-5.492-7.175 4.143-9.634 13.315-5.492 20.49l9.71 16.82c4.164 7.211 13.349 9.615 20.49 5.492 7.175-4.143 9.634-13.315 5.492-20.49z"/><path d="m145.321 270.191 16.7 9.64c7.152 4.127 16.334 1.707 20.49-5.492 4.142-7.175 1.683-16.349-5.492-20.49l-16.7-9.64c-7.175-4.142-16.349-1.684-20.49 5.492-4.141 7.175-1.683 16.349 5.492 20.49z"/><path d="m171 317c0-8.284-6.716-15-15-15h-19.2c-8.284 0-15 6.716-15 15s6.716 15 15 15h19.2c8.284 0 15-6.716 15-15z"/><path d="m182.512 359.661c-4.143-7.174-13.313-9.635-20.49-5.492l-16.7 9.64c-7.175 4.142-9.634 13.315-5.492 20.49 4.153 7.194 13.331 9.624 20.49 5.492l16.7-9.64c7.174-4.141 9.633-13.315 5.492-20.49z"/><path d="m213.81 390.769c-7.172-4.142-16.349-1.683-20.49 5.492l-9.71 16.82c-4.142 7.175-1.683 16.348 5.492 20.49 7.144 4.124 16.33 1.714 20.49-5.492l9.71-16.82c4.141-7.175 1.682-16.348-5.492-20.49z"/><path d="m256.4 402c-8.284 0-15 6.716-15 15v19.6c0 8.284 6.716 15 15 15s15-6.716 15-15v-19.6c0-8.284-6.715-15-15-15z"/><path d="m319.281 395.912c-4.143-7.176-13.317-9.636-20.489-5.493-7.175 4.141-9.635 13.314-5.493 20.489l9.91 17.17c4.162 7.211 13.348 9.616 20.489 5.493 7.175-4.141 9.635-13.314 5.493-20.489z"/><path d="m367.479 363.809-17.29-9.979c-7.175-4.141-16.349-1.685-20.489 5.493-4.142 7.175-1.682 16.349 5.493 20.489l17.29 9.979c7.158 4.131 16.338 1.701 20.489-5.493 4.141-7.175 1.681-16.349-5.493-20.489z"/></g></svg>