<svg id="Capa_1" enable-background="new 0 0 512 512" height="512" viewBox="0 0 512 512" width="512" xmlns="http://www.w3.org/2000/svg"><g><path d="m507.608 163c5.854-5.854 5.858-15.357 0-21.215l-126.058-126.045c-5.859-5.857-15.354-5.857-21.213 0l-39.423 39.419-55.55 16.999-54.646-17.778-39.892-39.888c-5.859-5.857-15.356-5.857-21.213 0l-145.221 145.206c-5.854 5.854-5.858 15.357 0 21.215l39.567 39.563 14.536 55.334c-5.421 3.75-7.327 6.521-16.822 15.773-27.577 27.577-9.144 74.567 29.337 76.649 1.212 22.924 19.524 41.192 42.437 42.433 1.212 22.925 19.525 41.193 42.437 42.433.587 11.096 5.184 21.444 13.1 29.36 17.529 17.527 46.05 17.528 63.58 0l11.297-11.296c.221-.221.429-.452.645-.677l18.268 18.266c17.528 17.53 46.06 17.538 63.597.001 7.212-7.21 11.66-16.441 12.843-26.413.194.002.387.014.58.014 11.515-.001 23.033-4.384 31.8-13.148 7.043-7.042 11.451-16.011 12.756-25.715.447.013.894.032 1.341.032 11.515-.001 23.032-4.384 31.798-13.148 6.911-6.91 11.295-15.673 12.69-25.169.743.036 1.486.056 2.23.056 11.515 0 23.033-4.384 31.8-13.149 17.575-17.575 17.578-46.018 0-63.596l-41.795-41.791 44.042-62.575zm-450.173 28.527-21.223-21.221 124.007-123.995 21.223 21.221zm26.605 142.419c-5.834 5.832-15.323 5.832-21.153 0-5.845-5.843-5.846-15.303 0-21.147l10.591-10.59c9.36-9.36 25.533-2.716 25.533 10.573 0 9.447-7.474 12.566-14.971 21.164zm42.436 42.432c-5.832 5.832-15.32 5.832-21.152 0-5.845-5.843-5.846-15.302 0-21.146l42.365-42.362c5.833-5.831 15.32-5.833 21.154-.001 5.843 5.845 5.845 15.302 0 21.147zm42.437 42.434c-5.832 5.832-15.32 5.831-21.152-.001-5.845-5.843-5.846-15.302 0-21.146l31.775-31.771c5.832-5.832 15.321-5.832 21.153 0 5.844 5.844 5.844 15.302 0 21.146h-.001zm53.734 31.136-11.297 11.296c-5.833 5.833-15.321 5.832-21.154 0-5.844-5.844-5.845-15.302.001-21.146l11.297-11.297c5.832-5.83 15.321-5.834 21.153 0 5.845 5.842 5.847 15.302 0 21.147zm220.348-120.218c5.851 5.849 5.85 15.318 0 21.166-5.837 5.837-15.336 5.839-21.173 0l-35.26-35.256c-6.784-6.782-16.31-6.293-22.016-.589-5.857 5.858-5.856 15.355.001 21.213l31.73 31.728c5.848 5.848 5.851 15.316-.001 21.166-5.836 5.838-15.336 5.838-21.172 0-11.288-11.344-9.395-9.413-31.71-31.746-5.859-5.857-15.357-5.856-21.214.001-.005.005-.009.01-.014.016-.002.002-.004.003-.005.005-5.857 5.858-5.856 15.356.002 21.214l28.604 28.601c5.498 5.926 5.294 15.063-.385 20.742-5.839 5.837-15.337 5.839-21.174 0l-28.198-28.196c-5.859-5.857-15.355-5.856-21.214.001-5.857 5.858-5.856 15.355.001 21.214l.667.667c.01.01.018.021.028.031l24.669 24.666c5.848 5.848 5.852 15.314-.001 21.167-5.837 5.836-15.334 5.839-21.173-.001l-26.987-26.985c.01-.394.029-.786.029-1.181 0-12.009-4.677-23.298-13.168-31.789-4.219-4.218-9.078-7.41-14.264-9.598 13.554-24.781 1.006-56.949-27.438-64.81 3.215-14.631-.859-30.278-12.104-41.523-17.528-17.526-46.05-17.524-63.579 0l-1.806 1.806c-6.691-14.039-20.551-24.217-37.211-25.471l-13.328-50.732 132.629-132.616 30.802 10.021c-48.022 48.073-56.31 56.37-57.474 57.535.003-.002 0 0-.007.007-.068.068-.111.111-.135.135.003-.003.006-.006.009-.009-.009.009-.016.016-.025.025-17.765 17.76-17.771 46.516-.001 64.281 17.723 17.724 46.562 17.725 64.285.001l42.84-42.836zm-42.114-84.536-103.222-103.211c-5.859-5.856-15.356-5.856-21.213 0l-53.446 53.441c-6.027 6.025-15.832 6.026-21.86-.001-6.039-6.039-6.041-15.813.001-21.853.003-.003.005-.005.008-.008.011-.011.036-.036.083-.083-.002.001-.003.003-.005.005.009-.009.015-.015.019-.019-.001.001-.003.002-.004.004.001-.002.004-.004.006-.006.003-.003.004-.004.001-.001.965-.969 9.649-9.683 72.134-72.386l51.263-15.686 110.761 110.75zm-50.79-176.786 20.852-20.85 104.844 104.834-20.852 20.85z"/><path d="m201.227 173.485c-.016.016-.042.042-.077.078-.001.001-.003.003-.004.004.012-.013.053-.054.081-.082z"/><path d="m201.248 173.464-.002.002.003-.004z"/><path d="m179.955 152.33.087-.087c-.028.028-.062.062-.087.087z"/></g></svg>