<svg id="Capa_1" enable-background="new 0 0 512 512" height="512" viewBox="0 0 512 512" width="512" xmlns="http://www.w3.org/2000/svg"><g><path d="m497.003 361h-15.997v-285c0-8.284-6.715-15-14.997-15h-419.918c-8.283 0-14.997 6.716-14.997 15v285h-16.097c-8.282 0-14.997 6.716-14.997 15v60c0 8.284 6.715 15 14.997 15h482.006c8.283 0 14.997-6.716 14.997-15v-60c0-8.284-6.715-15-14.997-15zm-435.915-270h389.924v270h-389.924zm239.953 300v30h-90.082v-30zm-271.047 0h150.971v30h-150.971zm452.012 30h-150.971v-30h150.971z"/><path d="m165.968 211h-59.889c-8.283 0-14.997 6.716-14.997 15v90c0 8.284 6.715 15 14.997 15h59.889c8.283 0 14.997-6.716 14.997-15v-90c0-8.284-6.715-15-14.997-15zm-14.997 90h-29.895v-60h29.895z"/><path d="m226.006 331h59.888c8.283 0 14.997-6.716 14.997-15v-134.95c0-8.284-6.715-15-14.997-15h-59.888c-8.283 0-14.997 6.716-14.997 15v134.95c0 8.284 6.714 15 14.997 15zm14.997-134.95h29.894v104.95h-29.894z"/><path d="m346.032 331h59.889c8.283 0 14.997-6.716 14.997-15v-180c0-8.284-6.715-15-14.997-15h-59.889c-8.283 0-14.997 6.716-14.997 15v180c0 8.284 6.715 15 14.997 15zm14.997-180h29.895v150h-29.895z"/></g></svg>