<svg id="Capa_1" enable-background="new 0 0 512 512" height="512" viewBox="0 0 512 512" width="512" xmlns="http://www.w3.org/2000/svg"><g><path d="m497.05 181.74v-45.002c0-8.284-6.716-15-15-15h-60c-8.284 0-15 6.716-15 15v45.002c-8.261.028-14.95 6.73-14.95 14.998v90c0 24.78 20.133 44.943 44.9 44.998v97.278c0 28.985-23.456 52.45-52.45 52.45-.002 0-.004 0-.006 0-28.918-.004-52.444-23.533-52.444-52.45v-322.439c0-58.47-47.568-106.038-106.038-106.038s-106.037 47.568-106.037 106.038v14.162h-55.025c-35.841 0-65 29.159-65 65v189.976c0 74.453 60.572 135.024 135.025 135.024s135.025-60.571 135.025-135.024v-189.976c0-35.841-29.159-65-65-65h-55.025v-14.162c0-41.928 34.11-76.038 76.038-76.038s76.038 34.11 76.038 76.038v322.438c0 45.457 36.982 82.444 82.441 82.45h.009c45.566-.002 82.45-36.874 82.45-82.45v-97.275c24.813 0 45-20.187 45-45v-90c-.001-8.268-6.69-14.971-14.951-14.998zm-362.025 298.997c-57.911 0-105.025-47.113-105.025-105.024v-74.976h210.05v74.976c0 57.911-47.114 105.024-105.025 105.024zm105.025-295v85h-210.05v-85c0-19.299 15.701-35 35-35h140.05c19.299 0 35 15.701 35 35zm227-34v30h-30v-30zm14.95 135c0 8.271-6.729 15-15 15h-29.9c-8.271 0-15-6.729-15-15v-75h59.9z"/><path d="m120 195.737v30c0 8.284 6.716 15 15 15s15-6.716 15-15v-30c0-8.284-6.716-15-15-15s-15 6.716-15 15z"/></g></svg>